<?xml version="1.0" standalone="no"?>
<!DOCTYPE svg PUBLIC "-//W3C//DTD SVG 20010904//EN"
 "http://www.w3.org/TR/2001/REC-SVG-20010904/DTD/svg10.dtd">
<svg version="1.0" xmlns="http://www.w3.org/2000/svg"
 width="828.000000pt" height="828.000000pt" viewBox="0 0 828.000000 828.000000"
 preserveAspectRatio="xMidYMid meet">
<metadata>
Created by potrace 1.11, written by Peter Selinger 2001-2013
</metadata>
<g transform="translate(0.000000,828.000000) scale(0.100000,-0.100000)"
fill="#000000" stroke="none">
<path d="M4018 7835 c-2 -2 -34 -6 -73 -9 -38 -4 -81 -9 -95 -11 -14 -3 -40
-7 -57 -10 -81 -13 -88 -14 -208 -44 -87 -22 -250 -74 -305 -98 -88 -38 -372
-182 -380 -193 -3 -3 -23 -17 -45 -30 -22 -13 -44 -28 -50 -32 -5 -4 -59 -46
-120 -92 -167 -128 -320 -283 -445 -451 -25 -33 -48 -61 -52 -63 -5 -2 -8 -10
-8 -17 0 -7 -4 -15 -8 -17 -15 -6 -135 -213 -188 -323 -54 -115 -141 -352
-159 -435 -3 -11 -7 -29 -10 -40 -25 -99 -52 -263 -60 -360 -5 -59 -5 -395 0
-440 2 -19 6 -60 10 -90 3 -30 15 -100 26 -155 12 -55 23 -111 26 -125 2 -13
7 -27 11 -30 4 -3 8 -14 9 -25 4 -44 54 -198 67 -207 6 -4 8 -8 4 -8 -14 0 85
-216 161 -355 49 -87 162 -254 174 -255 4 0 7 -5 7 -11 0 -9 91 -119 144 -174
11 -13 28 -31 37 -41 21 -25 145 -140 199 -184 23 -19 48 -40 54 -45 50 -48
328 -222 427 -268 212 -98 414 -168 584 -202 183 -36 302 -47 510 -47 88 0
183 3 210 6 28 4 70 9 95 11 25 3 92 15 150 26 58 12 112 22 120 23 9 1 20 5
25 8 9 5 70 21 87 22 3 1 10 4 14 8 4 5 14 8 21 8 8 0 58 16 111 36 452 168
844 464 1124 847 20 29 41 57 46 62 16 19 118 191 144 241 14 27 36 67 47 87
11 20 19 37 16 37 -2 0 10 29 26 65 27 60 89 222 87 228 -1 1 4 19 11 39 7 21
10 42 6 48 -3 5 -2 10 3 10 5 0 21 57 35 128 27 128 32 158 45 289 9 85 7 398
-3 463 -4 25 -7 52 -7 60 0 13 -6 47 -32 190 -2 14 -9 45 -15 70 -7 25 -13 52
-15 60 -2 8 -12 42 -22 75 -10 33 -18 62 -19 65 -3 17 -29 86 -41 108 -8 15
-14 32 -14 38 0 10 -36 87 -107 229 -19 39 -53 97 -74 130 -22 33 -42 68 -45
78 -4 9 -10 17 -15 17 -5 0 -9 6 -9 14 0 8 -4 16 -8 18 -5 2 -23 25 -42 52
-18 27 -40 56 -49 65 -9 10 -32 37 -51 61 -37 47 -225 238 -275 279 -27 22
-116 92 -194 150 -17 14 -40 29 -50 35 -70 40 -137 81 -141 86 -12 14 -246
123 -341 159 -87 32 -199 67 -277 87 -114 27 -221 46 -337 60 -56 6 -422 14
-427 9z"/>
<path d="M5781 2672 c-21 -3 -231 -202 -231 -220 0 -4 24 -5 54 -4 l54 4 106
108 c58 59 106 110 106 112 0 4 -58 4 -89 0z"/>
<path d="M1261 2350 c-5 -11 -7 -805 -2 -903 1 -16 10 -17 84 -15 l82 3 0 175
-1 175 63 3 c34 2 73 5 85 8 13 3 30 6 38 7 80 11 190 121 205 204 23 134 -20
238 -129 310 -58 38 -105 46 -284 47 -110 1 -135 -2 -141 -14z m325 -164 c25
-8 63 -57 68 -88 4 -31 -12 -87 -32 -109 -25 -26 -59 -35 -132 -35 l-65 1 0
105 c-1 146 -6 138 74 135 36 -1 76 -5 87 -9z"/>
<path d="M4668 2362 c-16 -2 -28 -6 -29 -10 -1 -4 -2 -211 -3 -460 -1 -395 1
-455 14 -461 12 -5 90 -6 146 -2 6 1 10 54 10 156 -1 162 5 208 20 169 5 -11
53 -89 108 -172 74 -114 104 -152 120 -153 83 -5 176 -3 176 4 0 4 -15 31 -33
60 -18 29 -36 59 -40 67 -4 8 -38 64 -76 125 l-69 110 48 26 c51 28 100 71
100 89 0 5 4 10 8 10 14 0 42 105 42 158 0 68 -35 145 -91 201 -50 50 -92 71
-157 78 -55 6 -256 9 -294 5z m315 -192 c42 -29 55 -57 51 -110 -6 -75 -46
-103 -154 -107 l-75 -2 1 122 c1 67 2 123 3 124 1 1 33 0 72 -2 52 -2 78 -9
102 -25z"/>
<path d="M2450 2345 c-108 -28 -194 -108 -220 -205 -13 -47 -21 -664 -9 -698
5 -13 20 -17 78 -17 40 -1 74 2 77 7 3 5 6 151 6 326 1 174 5 329 10 344 6 15
27 41 48 58 65 52 160 35 207 -37 16 -25 18 -57 19 -353 1 -179 2 -330 3 -335
1 -6 35 -10 80 -11 64 0 80 3 83 16 2 8 4 166 3 350 -1 313 -3 338 -21 380
-19 41 -61 91 -109 129 -56 44 -176 66 -255 46z"/>
<path d="M4310 2348 c-159 -40 -314 -182 -357 -328 -58 -199 27 -423 199 -524
90 -52 145 -67 266 -71 l112 -3 0 238 c0 181 -3 239 -12 242 -7 2 -62 4 -123
4 l-110 -1 -1 -45 c-1 -25 -3 -49 -4 -55 -9 -41 0 -54 42 -57 l42 -3 0 -70
c-1 -81 -9 -87 -80 -60 -64 24 -127 90 -153 160 -46 123 -20 241 72 326 38 36
46 41 63 38 4 0 10 3 13 8 3 5 28 16 54 25 56 18 140 15 174 -7 l23 -15 0 89
c0 88 0 89 -29 100 -36 16 -145 20 -191 9z"/>
<path d="M6223 2342 c-40 -13 -89 -48 -129 -90 -47 -51 -51 -88 -50 -471 l1
-356 80 -1 c44 0 82 3 85 7 3 4 5 90 4 191 l0 184 149 -1 c82 0 152 2 155 5 4
3 7 39 7 81 l0 77 -115 0 c-63 0 -133 1 -156 1 l-41 1 2 85 c2 125 7 129 178
135 l132 5 0 80 0 80 -133 0 c-80 0 -147 -5 -169 -13z"/>
<path d="M7297 2354 c-1 -1 -22 -5 -47 -9 -45 -6 -162 -57 -190 -82 -95 -87
-162 -181 -175 -248 -20 -105 -21 -125 -12 -200 6 -54 42 -139 83 -195 34 -48
98 -110 113 -110 4 0 15 -7 22 -16 11 -13 42 -30 69 -39 73 -22 106 -29 157
-30 l61 -2 4 41 c1 22 1 61 -2 86 l-5 45 -52 1 c-61 1 -146 39 -193 87 -56 56
-83 123 -84 202 0 102 29 156 134 249 21 18 76 36 130 42 69 8 67 5 66 96 l-1
83 -38 0 c-21 1 -39 0 -40 -1z"/>
<path d="M579 2340 c-26 -5 -57 -14 -70 -21 -13 -7 -25 -11 -27 -10 -9 7 -76
-37 -119 -77 -100 -92 -142 -189 -147 -337 -3 -83 31 -229 64 -267 5 -7 23
-30 40 -51 54 -72 131 -120 230 -147 47 -13 187 -20 205 -11 6 3 17 6 25 7 47
3 150 46 189 79 122 103 179 231 175 390 -3 102 -40 223 -79 255 -8 7 -15 17
-15 23 0 35 -167 146 -245 162 -49 10 -176 13 -226 5z m197 -163 c37 -9 100
-54 132 -94 97 -123 87 -309 -22 -419 -23 -22 -98 -70 -106 -67 -3 1 -14 0
-25 -2 -202 -46 -377 85 -378 284 -1 101 10 139 63 209 29 40 79 73 135 89 37
11 153 11 201 0z"/>
<path d="M1929 2338 c-1 -16 -1 -888 0 -908 1 -13 14 -16 74 -14 39 1 79 2 87
3 13 1 15 60 15 466 l0 465 -87 0 c-63 0 -88 -4 -89 -12z"/>
<path d="M3275 2334 c-85 -20 -141 -51 -205 -114 -222 -217 -163 -624 109
-757 69 -33 117 -44 207 -45 213 -4 375 99 445 282 68 178 27 386 -100 516
-49 50 -144 105 -206 119 -57 14 -190 13 -250 -1z m215 -156 c49 -13 107 -57
156 -120 22 -28 46 -107 47 -154 1 -65 -11 -138 -23 -142 -6 -2 -10 -11 -10
-21 0 -19 -61 -87 -100 -112 -81 -52 -214 -57 -308 -12 -170 81 -214 345 -81
486 19 20 59 47 89 61 47 21 67 24 135 21 44 -2 87 -5 95 -7z"/>
<path d="M5513 2332 c-48 -16 -142 -100 -167 -149 -9 -18 -14 -33 -11 -33 3 0
1 -9 -5 -20 -12 -22 -17 -687 -5 -698 4 -4 41 -7 84 -7 l77 -1 -1 144 c-1 88
3 146 9 150 6 3 66 6 133 7 l123 0 1 -30 c0 -16 1 -83 0 -147 0 -65 3 -119 7
-120 4 0 40 -2 80 -3 59 -1 72 1 73 14 0 9 1 165 1 347 1 381 -1 389 -92 476
-83 79 -200 105 -307 70z m177 -159 c28 -18 53 -50 57 -73 3 -16 6 -150 4
-190 l-1 -25 -132 0 -133 0 1 113 c1 96 4 117 21 140 43 59 122 73 183 35z"/>
<path d="M6619 2343 c-5 -40 -2 -898 3 -912 5 -15 18 -17 82 -16 41 0 78 4 81
7 4 3 7 212 7 465 l0 458 -86 3 c-47 1 -86 -1 -87 -5z"/>
<path d="M7675 2336 c-55 -20 -91 -44 -128 -85 -40 -45 -69 -95 -60 -105 4 -3
2 -6 -4 -6 -5 0 -10 -6 -11 -12 -1 -16 -3 -561 -3 -644 l1 -61 82 1 83 1 -1
150 -1 150 134 0 c111 0 133 -2 134 -15 0 -8 1 -76 2 -150 l2 -135 75 0 75 0
1 83 c1 45 4 88 7 96 3 8 3 16 0 19 -4 5 -7 200 -2 223 1 5 1 14 -1 19 -4 24
-1 135 4 144 4 5 3 12 -2 15 -5 3 -7 25 -5 51 7 91 -71 201 -176 248 -53 24
-160 30 -206 13z m135 -151 c80 -18 98 -76 91 -286 -1 -13 -20 -15 -133 -14
l-133 1 -1 99 c-2 119 13 164 64 193 35 20 54 21 112 7z"/>
<path d="M600 1210 c-6 -28 -10 -52 -14 -87 -3 -24 -8 -53 -10 -65 -3 -13 -8
-45 -11 -73 -2 -27 -7 -66 -10 -85 -2 -19 -7 -55 -10 -80 -11 -89 -17 -136
-22 -165 -13 -86 -13 -93 6 -98 37 -9 41 0 56 143 4 30 8 75 10 100 2 25 7 72
10 105 4 33 7 75 8 93 0 17 4 32 9 32 4 0 8 -4 8 -10 0 -5 15 -43 34 -84 19
-41 49 -107 66 -147 99 -227 110 -250 120 -244 6 4 10 12 10 18 0 7 9 29 20
50 11 20 20 42 20 49 0 6 6 19 13 27 7 9 24 43 37 76 13 33 38 91 57 129 18
38 33 74 33 80 0 6 9 22 20 36 l19 25 -1 -40 c0 -22 1 -42 2 -45 1 -3 3 -16 4
-30 11 -106 18 -180 22 -210 2 -19 6 -59 8 -88 5 -59 5 -59 26 -62 43 -6 44
-4 24 130 -3 19 -7 53 -9 75 -3 22 -7 56 -10 75 -3 19 -8 59 -10 88 -3 29 -7
65 -10 80 -3 15 -7 50 -10 77 -3 28 -8 68 -11 89 l-6 39 -23 -49 c-22 -46
-136 -299 -200 -441 -15 -35 -31 -61 -35 -58 -3 2 -12 22 -20 44 -7 23 -17 41
-22 41 -4 0 -8 6 -8 14 0 7 -14 44 -31 82 -16 38 -36 83 -44 99 -7 17 -23 52
-34 78 -12 26 -35 80 -51 120 -16 40 -30 70 -30 67z"/>
<path d="M3150 1200 c-78 -13 -123 -67 -124 -145 0 -69 25 -102 122 -162 117
-72 140 -91 148 -126 25 -104 -25 -175 -121 -173 -48 1 -98 29 -116 66 -13 25
-16 26 -42 15 l-28 -12 33 -44 c42 -54 77 -72 147 -75 93 -4 169 49 186 131 8
37 8 41 1 88 -10 67 -23 79 -191 185 -54 33 -77 63 -81 101 -4 31 20 77 47 92
43 23 121 8 142 -27 10 -17 17 -17 40 0 18 14 17 15 -4 40 -20 24 -73 48 -109
51 -8 0 -31 -2 -50 -5z"/>
<path d="M3842 1199 c-129 -17 -248 -120 -279 -241 -7 -30 -7 -147 0 -176 10
-39 56 -111 95 -149 130 -125 369 -117 490 18 85 95 106 195 69 334 -25 93
-154 200 -255 212 -20 2 -44 5 -52 6 -8 2 -39 0 -68 -4z m173 -74 c52 -25 109
-84 133 -137 84 -185 -47 -391 -248 -391 -100 0 -144 17 -205 80 -49 50 -75
111 -78 181 -3 56 19 152 35 152 4 0 8 6 8 13 0 15 64 78 98 96 74 39 180 42
257 6z"/>
<path d="M5656 1195 c-88 -31 -126 -113 -94 -202 9 -25 30 -46 73 -74 33 -21
65 -43 71 -48 6 -5 19 -11 30 -15 25 -8 69 -48 83 -74 28 -52 -2 -159 -49
-177 -69 -27 -160 0 -183 54 -10 24 -16 27 -35 20 -44 -16 -12 -78 61 -117 38
-20 105 -23 167 -8 26 6 96 76 98 98 13 110 6 148 -35 193 -20 23 -118 85
-133 85 -6 0 -10 5 -10 10 0 6 -5 10 -11 10 -7 0 -27 16 -45 35 -39 39 -44 80
-17 125 30 51 118 57 167 11 18 -16 25 -18 43 -8 l23 13 -26 27 c-44 48 -113
64 -178 42z"/>
<path d="M6561 1199 c-50 -11 -79 -29 -101 -64 -46 -74 -25 -157 53 -212 25
-18 48 -33 51 -33 15 0 118 -74 132 -95 35 -54 20 -148 -30 -181 -62 -40 -171
-14 -196 47 -11 25 -14 27 -36 17 -13 -6 -24 -15 -24 -21 0 -16 40 -65 70 -87
34 -24 120 -34 172 -20 78 22 130 109 118 199 -8 64 -29 94 -98 138 -132 84
-152 98 -162 118 -47 87 30 172 126 139 21 -7 44 -21 51 -29 9 -14 15 -14 33
-5 19 10 20 13 7 33 -30 46 -101 70 -166 56z"/>
<path d="M7507 1184 c-9 -13 -17 -27 -17 -32 0 -10 -44 -116 -60 -144 -6 -10
-10 -25 -10 -33 0 -8 -4 -15 -10 -15 -5 0 -10 -7 -10 -15 0 -8 -13 -44 -30
-80 -16 -36 -30 -68 -30 -71 0 -3 -14 -36 -31 -72 -34 -74 -70 -162 -66 -163
40 -12 48 -8 71 44 12 28 33 78 46 110 l22 57 133 0 c143 0 133 3 149 -50 2
-6 25 -67 37 -97 25 -63 30 -69 57 -67 15 1 28 3 29 3 2 1 -38 100 -63 159
-34 79 -44 102 -74 177 -17 44 -37 93 -45 110 -7 16 -28 69 -47 116 -33 85
-34 86 -51 63z m28 -131 c3 -16 13 -41 20 -58 21 -45 65 -161 65 -168 0 -4
-49 -7 -109 -6 l-109 1 54 130 c30 71 54 132 54 135 0 15 19 -11 25 -34z"/>
<path d="M244 875 c0 -173 2 -315 5 -316 51 -7 51 -7 52 40 0 63 1 552 0 574
-1 12 -9 17 -29 17 l-28 0 0 -315z"/>
<path d="M1392 874 l3 -318 25 0 25 0 3 134 c1 74 6 138 11 143 4 4 41 9 83
11 125 6 175 47 184 148 5 53 2 70 -18 107 -39 75 -60 84 -198 89 l-120 4 2
-318z m199 255 c60 -15 90 -96 65 -179 -10 -34 -47 -50 -133 -57 l-73 -5 0
126 0 126 53 -1 c28 0 68 -5 88 -10z"/>
<path d="M1930 877 c0 -329 0 -330 42 -319 15 4 17 18 17 101 -1 199 0 201 19
201 10 0 40 -33 72 -77 30 -42 70 -94 88 -117 42 -53 44 -57 63 -86 12 -19 25
-25 45 -24 19 1 28 6 26 15 -3 11 -73 109 -129 179 -7 8 -28 35 -47 60 l-36
45 36 8 c87 18 133 78 128 167 -6 111 -63 152 -221 158 l-103 4 0 -315z m213
248 c40 -16 64 -115 38 -163 -19 -36 -54 -51 -121 -54 l-65 -3 -5 45 c-3 25
-3 78 -2 119 l4 74 66 -6 c37 -3 75 -9 85 -12z"/>
<path d="M2493 875 c0 -219 3 -315 11 -318 6 -2 76 -3 156 -2 l145 1 3 27 c4
30 14 29 -165 28 l-93 -1 0 134 c0 119 2 134 18 138 9 2 68 3 130 3 l112 -1 0
27 0 27 -112 0 c-62 0 -121 1 -131 1 -16 1 -17 11 -15 99 l3 97 115 1 c148 2
140 0 140 29 l0 25 -158 0 -158 0 -1 -315z"/>
<path d="M4459 1183 c-6 -43 -3 -602 3 -615 8 -16 23 -18 43 -6 7 4 11 62 10
152 0 131 1 146 17 146 9 0 26 -12 37 -27 12 -16 24 -32 28 -38 5 -5 46 -61
92 -122 46 -62 88 -114 93 -114 4 -1 15 -1 23 -1 8 0 20 0 26 1 12 1 -18 44
-132 191 -44 56 -78 104 -76 107 3 2 19 6 36 8 71 9 125 79 122 160 -3 115
-68 161 -227 164 -52 1 -94 -2 -95 -6z m228 -76 c14 -14 26 -38 28 -53 1 -16
4 -33 6 -39 1 -5 -5 -27 -14 -48 -19 -44 -44 -55 -129 -59 l-63 -3 0 118 0
119 74 -5 c61 -4 78 -9 98 -30z"/>
<path d="M5022 873 l3 -318 157 0 157 0 -1 28 c-1 26 -3 27 -62 28 -34 0 -92
1 -130 2 l-69 2 0 71 c0 39 3 76 7 82 3 6 3 13 -2 16 -9 5 -6 85 3 94 3 4 61
6 128 7 l122 0 0 25 0 25 -123 1 c-67 1 -125 4 -128 7 -5 5 -8 106 -5 172 1
19 7 20 124 20 123 -1 137 3 137 38 0 15 -14 17 -160 17 l-160 0 2 -317z"/>
<path d="M7001 624 c-33 -24 -17 -74 23 -74 29 0 49 22 44 51 -4 30 -40 42
-67 23z"/>
<path d="M7984 629 c-29 -10 -35 -33 -18 -58 28 -40 83 -20 76 28 -4 32 -25
43 -58 30z"/>
</g>
</svg>
