<?xml version="1.0" standalone="no"?>
<!DOCTYPE svg PUBLIC "-//W3C//DTD SVG 20010904//EN"
 "http://www.w3.org/TR/2001/REC-SVG-20010904/DTD/svg10.dtd">
<svg version="1.0" xmlns="http://www.w3.org/2000/svg"
 width="250.000000pt" height="250.000000pt" viewBox="0 0 250.000000 250.000000"
 preserveAspectRatio="xMidYMid meet">
<metadata>
Created by potrace 1.11, written by Peter Selinger 2001-2013
</metadata>
<g transform="translate(0.000000,250.000000) scale(0.100000,-0.100000)"
fill="#000000" stroke="none">
<path d="M1063 2465 c-423 -69 -788 -359 -943 -749 -106 -266 -119 -568 -34
-838 115 -366 398 -657 766 -786 141 -50 243 -66 413 -66 160 1 248 15 383 60
370 123 661 420 780 794 76 239 74 516 -4 757 -113 349 -398 643 -744 768
-184 66 -430 90 -617 60z"/>
</g>
</svg>
