<?xml version="1.0" encoding="utf-8"?>
<!-- Generator: Adobe Illustrator 19.0.0, SVG Export Plug-In . SVG Version: 6.00 Build 0)  -->
<svg version="1.1" id="Capa_1" xmlns="http://www.w3.org/2000/svg" xmlns:xlink="http://www.w3.org/1999/xlink" x="0px" y="0px"
	 viewBox="0 0 290.661 160.169" enable-background="new 0 0 290.661 160.169" xml:space="preserve">
<g id="XMLID_72_">
	<g id="XMLID_79_">
		<path id="XMLID_80_" fill="#E5E5E5" d="M139.545,129.919c-21.773,0-43.282-6.236-61.921-18.145
			C54.654,97.099,37.558,74.875,29.485,49.2l4.77-1.5c16.062,51.082,68.065,83.795,120.969,76.084
			c52.904-7.706,93.417-53.892,94.237-107.433l4.999,0.076c-0.412,26.913-10.458,53.09-28.287,73.709
			c-18.096,20.928-43.037,34.635-70.229,38.596C150.491,129.526,145.007,129.919,139.545,129.919z"/>
	</g>
	<g id="XMLID_76_">
		<g id="XMLID_77_">
			<polygon id="XMLID_78_" fill="#E5E5E5" points="57.892,45.387 28.807,36.367 8.16,58.756 8.203,58.919 57.935,45.549 			"/>
		</g>
	</g>
	<g id="XMLID_73_">
		<g id="XMLID_74_">
			<polygon id="XMLID_75_" fill="#E5E5E5" points="226.146,20.877 251.449,3.935 277.626,19.503 277.63,19.671 226.151,21.045 			
				"/>
		</g>
	</g>
</g>
<g id="XMLID_2_">
	<g id="XMLID_3_">
		<path id="XMLID_70_" fill="#C6C6C6" d="M48.005,117.414c-0.691-0.213-1.863-0.88-3.067-2.066
			c-2.789-2.748-3.055-6.573,0.158-9.515c3.067-2.809,6.937-2.71,9.686-0.017c1.105,1.082,1.572,2,1.721,2.462
			c-0.493,0.306-0.741,0.457-1.237,0.76c-0.234-0.651-0.703-1.422-1.449-2.152c-2.105-2.06-4.901-2.153-7.439,0.242
			c-2.365,2.232-2.556,5.115-0.171,7.451c0.772,0.756,1.714,1.354,2.457,1.591C48.4,116.666,48.268,116.915,48.005,117.414z"/>
		<path id="XMLID_68_" fill="#C6C6C6" d="M58.643,108.769c0.474,0.427,0.712,0.639,1.189,1.058
			c-3.68,4.222-5.519,6.331-9.199,10.549c-0.536-0.47-0.803-0.708-1.334-1.187C53.036,115.022,54.905,112.939,58.643,108.769z"/>
		<path id="XMLID_65_" fill="#C6C6C6" d="M62.096,114.064c-0.359,0.459-0.967,0.587-1.464,0.176
			c-0.439-0.363-0.446-0.987-0.067-1.441c0.392-0.47,1.013-0.564,1.458-0.196C62.483,112.982,62.467,113.589,62.096,114.064z
			 M52.902,122.323c2.441-2.933,3.662-4.4,6.103-7.334c0.503,0.422,0.756,0.631,1.263,1.044c-2.401,2.968-3.601,4.451-6.002,7.417
			C53.718,123.003,53.446,122.778,52.902,122.323z"/>
		<path id="XMLID_63_" fill="#C6C6C6" d="M62.272,129.041c-0.506-0.064-1.515-0.385-2.559-1.145
			c-2.345-1.708-2.631-4.439-0.835-6.739c1.808-2.315,4.592-2.807,6.938-1.109c0.772,0.559,1.313,1.252,1.541,1.698
			c-0.425,0.358-0.639,0.536-1.067,0.891c-0.184-0.418-0.558-0.947-1.279-1.469c-1.667-1.207-3.528-0.61-4.733,0.976
			c-1.335,1.759-1.031,3.711,0.497,4.818c0.796,0.576,1.472,0.738,1.996,0.839C62.571,128.298,62.471,128.546,62.272,129.041z"/>
		<path id="XMLID_61_" fill="#C6C6C6" d="M67.984,127.091c0.013,0.008,0.019,0.012,0.032,0.021c0.371-0.157,0.864-0.331,1.264-0.473
			c1.601-0.536,2.392-0.817,3.954-1.405c0.654,0.401,0.982,0.599,1.641,0.988c-1.958,0.667-2.952,0.98-4.971,1.563
			c0.157,2.757,0.271,4.142,0.571,6.923c-0.719-0.421-1.078-0.635-1.792-1.069c-0.168-2.244-0.229-3.362-0.306-5.587
			c-0.499,0.148-0.749,0.221-1.252,0.363c-0.782,1.204-1.173,1.806-1.954,3.01c-0.572-0.374-0.857-0.563-1.426-0.945
			c3.111-4.656,4.667-6.983,7.778-11.643c0.507,0.341,0.761,0.51,1.271,0.843C70.87,122.645,69.908,124.127,67.984,127.091z"/>
		<path id="XMLID_58_" fill="#C6C6C6" d="M78.136,131.621c0.571-1.081,1-1.97,1.393-2.789c0.5,0.266,0.751,0.397,1.253,0.656
			c-0.274,0.596-0.411,0.894-0.685,1.49c0.013,0.007,0.019,0.01,0.032,0.017c1.112-0.737,2.324-0.894,3.59-0.284
			c1.874,0.904,2.508,3.315,1.331,5.964c-1.393,3.137-3.942,3.863-5.919,2.904c-1.11-0.538-1.829-1.522-1.891-2.618
			c-0.014-0.007-0.021-0.01-0.034-0.018c-0.946,1.847-1.418,2.77-2.364,4.616c-0.616-0.316-0.923-0.477-1.535-0.801
			C75.238,137.103,76.204,135.276,78.136,131.621z M78.392,134.625c-0.117,0.229-0.191,0.456-0.256,0.667
			c-0.279,1.208,0.25,2.41,1.331,2.937c1.594,0.778,3.157-0.163,4.071-2.151c0.8-1.739,0.65-3.601-0.855-4.334
			c-0.971-0.473-2.253-0.174-3.122,0.844c-0.148,0.168-0.314,0.37-0.422,0.582C78.84,133.751,78.691,134.042,78.392,134.625z"/>
		<path id="XMLID_55_" fill="#C6C6C6" d="M89.746,143.91c0.121-0.469,0.181-0.703,0.303-1.172c-0.021-0.008-0.032-0.012-0.053-0.02
			c-0.743,0.52-1.914,0.791-3.136,0.296c-1.736-0.704-2.075-2.342-1.528-3.61c0.914-2.119,3.147-2.495,6.311-1.271
			c0.028-0.074,0.042-0.11,0.07-0.184c0.281-0.738,0.6-2.122-1.038-2.776c-0.745-0.297-1.625-0.362-2.356-0.199
			c0.046-0.478,0.069-0.716,0.118-1.194c0.855-0.193,1.928-0.111,2.927,0.286c2.425,0.963,2.341,3.026,1.682,4.822
			c-0.492,1.341-0.737,2.011-1.229,3.352c-0.285,0.778-0.529,1.55-0.645,2.2C90.601,144.231,90.316,144.125,89.746,143.91z
			 M91.248,139.27c-1.63-0.662-3.608-1.117-4.321,0.595c-0.432,1.038,0.028,1.806,0.818,2.123c1.107,0.444,2.097-0.024,2.629-0.687
			c0.116-0.146,0.22-0.317,0.284-0.483C90.894,140.199,91.012,139.89,91.248,139.27z"/>
		<path id="XMLID_53_" fill="#C6C6C6" d="M95.702,139.073c0.365-1.064,0.661-1.984,0.9-2.841c0.512,0.175,0.769,0.261,1.282,0.431
			c-0.216,0.719-0.323,1.078-0.539,1.796c0.027,0.009,0.041,0.013,0.068,0.022c0.775-1.096,1.905-1.579,2.891-1.277
			c0.167,0.051,0.278,0.106,0.401,0.185c-0.191,0.627-0.286,0.94-0.477,1.566c-0.141-0.084-0.288-0.149-0.492-0.212
			c-1.051-0.323-2.078,0.316-2.69,1.485c-0.108,0.213-0.229,0.465-0.322,0.746c-0.636,1.934-0.954,2.9-1.59,4.834
			c-0.627-0.205-0.94-0.31-1.564-0.523C94.423,142.801,94.849,141.559,95.702,139.073z"/>
		<path id="XMLID_50_" fill="#C6C6C6" d="M104.265,148.425c0.065-0.48,0.098-0.719,0.164-1.199
			c-0.022-0.005-0.032-0.008-0.054-0.013c-0.672,0.606-1.793,1.016-3.051,0.674c-1.788-0.485-2.306-2.067-1.912-3.391
			c0.658-2.212,2.808-2.86,6.062-2.03c0.019-0.076,0.029-0.115,0.048-0.191c0.193-0.766,0.348-2.177-1.338-2.626
			c-0.766-0.204-1.638-0.16-2.339,0.091c-0.009-0.479-0.013-0.719-0.02-1.197c0.819-0.297,1.883-0.346,2.911-0.075
			c2.495,0.659,2.648,2.716,2.205,4.577c-0.331,1.389-0.496,2.084-0.827,3.472c-0.192,0.806-0.343,1.601-0.384,2.26
			C105.143,148.64,104.85,148.569,104.265,148.425z M105.215,143.642c-1.679-0.458-3.677-0.668-4.183,1.116
			c-0.307,1.082,0.233,1.786,1.046,2.004c1.139,0.305,2.06-0.279,2.508-1.001c0.098-0.159,0.182-0.341,0.225-0.513
			C104.973,144.606,105.053,144.285,105.215,143.642z"/>
		<path id="XMLID_48_" fill="#C6C6C6" d="M118.523,150.741c-0.457,0.179-1.448,0.366-2.653,0.184
			c-2.708-0.408-4.097-2.669-3.553-5.537c0.547-2.887,2.682-4.638,5.388-4.237c0.891,0.132,1.644,0.491,2.027,0.78
			c-0.208,0.514-0.313,0.771-0.525,1.284c-0.333-0.284-0.876-0.576-1.708-0.699c-1.922-0.284-3.239,1.118-3.584,3.081
			c-0.384,2.175,0.697,3.748,2.459,4.01c0.918,0.136,1.56-0.036,2.047-0.191C118.46,149.945,118.481,150.21,118.523,150.741z"/>
		<path id="XMLID_45_" fill="#C6C6C6" d="M125.369,151.803c-0.014-0.483-0.021-0.725-0.034-1.209
			c-0.022-0.002-0.033-0.003-0.055-0.004c-0.558,0.708-1.587,1.299-2.872,1.171c-1.825-0.181-2.588-1.652-2.419-3.022
			c0.283-2.289,2.276-3.289,5.592-3.01c0.006-0.078,0.01-0.118,0.016-0.196c0.064-0.787-0.014-2.204-1.734-2.366
			c-0.782-0.074-1.627,0.115-2.271,0.479c-0.087-0.471-0.13-0.706-0.214-1.176c0.751-0.429,1.782-0.655,2.831-0.558
			c2.545,0.235,3.031,2.239,2.9,4.146c-0.097,1.424-0.146,2.136-0.243,3.56c-0.057,0.827-0.075,1.635-0.008,2.291
			C126.262,151.869,125.964,151.848,125.369,151.803z M125.518,146.931c-1.716-0.174-3.701-0.047-3.905,1.795
			c-0.124,1.117,0.518,1.721,1.348,1.801c1.162,0.111,1.968-0.617,2.288-1.402c0.07-0.173,0.121-0.366,0.135-0.543
			C125.438,147.922,125.465,147.592,125.518,146.931z"/>
		<path id="XMLID_43_" fill="#C6C6C6" d="M129.685,145.095c0.047-0.985,0.068-1.793,0.054-2.584
			c0.532,0.024,0.797,0.035,1.329,0.054c0.005,0.616,0.007,0.924,0.013,1.539c0.021,0.001,0.031,0.001,0.052,0.002
			c0.505-0.89,1.303-1.901,2.681-1.885c1.137,0.014,1.997,0.728,2.37,1.728c0.014,0,0.021,0,0.035,0c0.26,0,0.586-0.761,0.928-1.062
			c0.496-0.441,1.041-0.593,1.832-0.617c1.101-0.034,2.776,0.761,2.948,4.067c0.117,2.244,0.175,3.39,0.292,5.633
			c-0.639,0.034-0.959,0.061-1.598,0.087c-0.085-2.158-0.128-3.231-0.213-5.39c-0.073-1.832-0.708-2.903-1.944-2.87
			c-0.871,0.023-1.54,0.762-1.797,1.612c-0.069,0.237-0.119,0.554-0.116,0.869c0.02,2.357,0.03,3.536,0.049,5.893
			c-0.641,0.007-0.961,0.008-1.602,0.007c0.009-2.286,0.014-3.429,0.023-5.715c0.006-1.518-0.581-2.619-1.75-2.638
			c-0.959-0.016-1.682,0.829-1.959,1.687c-0.098,0.254-0.143,0.548-0.154,0.843c-0.081,2.301-0.122,3.452-0.203,5.752
			c-0.641-0.021-0.962-0.034-1.603-0.063C129.486,149.266,129.552,147.876,129.685,145.095z"/>
		<path id="XMLID_40_" fill="#C6C6C6" d="M144.796,151.831c-0.01-0.651-0.043-1.617-0.104-2.462
			c-0.334-4.599-0.501-6.899-0.835-11.502c0.576-0.042,0.864-0.065,1.439-0.115c0.204,2.389,0.305,3.584,0.509,5.972
			c0.014-0.001,0.021-0.002,0.035-0.003c0.448-1.106,1.341-1.879,2.674-2.025c2.052-0.226,3.763,1.527,4.153,4.389
			c0.458,3.367-1.307,5.334-3.308,5.551c-1.296,0.14-2.39-0.296-3.155-1.497c-0.022,0.002-0.033,0.003-0.055,0.005
			c0.023,0.631,0.035,0.946,0.057,1.577C145.642,151.767,145.36,151.79,144.796,151.831z M146.16,147.887
			c0.018,0.216,0.073,0.429,0.126,0.622c0.41,1.171,1.423,1.913,2.596,1.789c1.686-0.178,2.506-1.779,2.231-3.948
			c-0.24-1.897-1.307-3.403-2.933-3.23c-1.038,0.11-1.934,1.001-2.138,2.344c-0.018,0.2-0.051,0.44-0.028,0.715
			C146.072,146.862,146.101,147.204,146.16,147.887z"/>
		<path id="XMLID_37_" fill="#C6C6C6" d="M155.13,138.284c0.106,0.574-0.173,1.11-0.761,1.205c-0.52,0.084-0.961-0.327-1.051-0.911
			c-0.093-0.605,0.214-1.13,0.741-1.215C154.603,137.275,155.021,137.691,155.13,138.284z M155.38,150.623
			c-0.587-3.769-0.88-5.654-1.467-9.425c0.599-0.093,0.898-0.142,1.496-0.242c0.635,3.763,0.952,5.644,1.586,9.406
			C156.35,150.47,156.027,150.523,155.38,150.623z"/>
		<path id="XMLID_34_" fill="#C6C6C6" d="M164.548,148.861c-0.159-0.457-0.238-0.686-0.396-1.143
			c-0.021,0.005-0.032,0.007-0.054,0.012c-0.318,0.841-1.12,1.709-2.379,1.968c-1.789,0.368-2.954-0.809-3.205-2.166
			c-0.419-2.267,1.172-3.811,4.41-4.527c-0.017-0.077-0.026-0.115-0.044-0.192c-0.176-0.769-0.676-2.098-2.361-1.743
			c-0.765,0.161-1.511,0.591-2.013,1.13c-0.224-0.423-0.335-0.635-0.556-1.058c0.585-0.632,1.497-1.153,2.522-1.372
			c2.49-0.53,3.555,1.237,4.004,3.095c0.335,1.387,0.503,2.08,0.838,3.467c0.195,0.805,0.42,1.582,0.681,2.187
			C165.418,148.66,165.128,148.728,164.548,148.861z M163.227,144.17c-1.685,0.343-3.533,1.051-3.174,2.869
			c0.218,1.102,1.009,1.488,1.822,1.318c1.138-0.238,1.685-1.171,1.755-2.016c0.015-0.185,0.006-0.385-0.033-0.558
			C163.449,145.139,163.375,144.816,163.227,144.17z"/>
		<path id="XMLID_32_" fill="#C6C6C6" d="M166.741,141.566c-0.286-1.087-0.549-2.016-0.825-2.861
			c0.514-0.134,0.771-0.203,1.283-0.343c0.218,0.717,0.328,1.076,0.547,1.793c0.027-0.007,0.041-0.011,0.068-0.019
			c0.031-1.338,0.689-2.359,1.664-2.646c0.165-0.049,0.286-0.063,0.429-0.065c0.188,0.627,0.282,0.94,0.471,1.567
			c-0.161,0.007-0.317,0.033-0.519,0.092c-1.038,0.305-1.527,1.399-1.385,2.709c0.029,0.237,0.068,0.513,0.147,0.798
			c0.543,1.96,0.814,2.94,1.357,4.9c-0.625,0.172-0.938,0.256-1.564,0.42C167.745,145.374,167.41,144.105,166.741,141.566z"/>
		<path id="XMLID_29_" fill="#C6C6C6" d="M179.918,129.313c1.777,4.259,2.667,6.388,4.445,10.644
			c0.327,0.782,0.716,1.668,1.02,2.245c-0.546,0.227-0.819,0.338-1.367,0.558c-0.277-0.603-0.415-0.904-0.691-1.508
			c-0.014,0.005-0.021,0.008-0.034,0.014c-0.062,1.172-0.792,2.334-2.176,2.851c-2.049,0.765-4.27-0.557-5.215-3.288
			c-1.035-2.99-0.045-5.394,1.862-6.109c1.195-0.448,2.251-0.126,2.894,0.445c0.013-0.005,0.02-0.008,0.033-0.013
			c-0.852-2.115-1.277-3.172-2.129-5.287C179.104,129.648,179.376,129.538,179.918,129.313z M181.675,137.603
			c-0.081-0.2-0.208-0.469-0.338-0.65c-0.626-0.938-1.74-1.47-2.817-1.062c-1.486,0.562-1.845,2.355-1.135,4.341
			c0.65,1.819,2.027,3.036,3.67,2.415c1.021-0.386,1.668-1.469,1.453-2.785c-0.038-0.239-0.11-0.466-0.213-0.722
			C182.047,138.525,181.923,138.218,181.675,137.603z"/>
		<path id="XMLID_26_" fill="#C6C6C6" d="M186.826,136.728c0.998,2.124,2.684,2.431,4.159,1.727
			c1.056-0.504,1.592-1.014,2.015-1.534c0.323,0.394,0.485,0.59,0.81,0.983c-0.392,0.507-1.143,1.236-2.447,1.856
			c-2.525,1.199-4.835,0.074-5.987-2.564c-1.152-2.638-0.69-5.294,1.517-6.338c2.473-1.17,4.361,0.913,5.162,2.475
			c0.162,0.316,0.256,0.578,0.321,0.744C190.179,135.193,189.068,135.724,186.826,136.728z M190.494,133.63
			c-0.475-0.998-1.612-2.337-3.178-1.598c-1.408,0.664-1.365,2.409-0.984,3.557C188.01,134.837,188.842,134.445,190.494,133.63z"/>
		<path id="XMLID_23_" fill="#C6C6C6" d="M195.129,123.712c0.304,0.498,0.231,1.1-0.291,1.402c-0.461,0.266-1.025,0.042-1.318-0.472
			c-0.303-0.532-0.2-1.133,0.268-1.404C194.271,122.959,194.814,123.197,195.129,123.712z M199.762,135.16
			c-1.899-3.313-2.848-4.969-4.746-8.283c0.533-0.303,0.799-0.457,1.328-0.768c1.94,3.289,2.911,4.933,4.852,8.222
			C200.624,134.666,200.337,134.832,199.762,135.16z"/>
		<path id="XMLID_21_" fill="#C6C6C6" d="M199.888,126.994c-0.519-0.839-0.961-1.517-1.42-2.161
			c0.458-0.282,0.687-0.424,1.143-0.712c0.353,0.505,0.53,0.757,0.884,1.261c0.018-0.011,0.027-0.017,0.045-0.028
			c-0.082-1.021,0.121-2.152,1.287-2.926c0.962-0.639,2.128-0.486,3.078,0.223c0.012-0.008,0.018-0.012,0.029-0.02
			c-0.085-0.59-0.048-1.121,0.069-1.566c0.167-0.649,0.485-1.167,1.137-1.643c0.907-0.663,2.742-1.018,4.763,1.608
			c1.371,1.783,2.057,2.674,3.428,4.456c-0.519,0.399-0.78,0.596-1.304,0.988c-1.297-1.73-1.945-2.595-3.241-4.325
			c-1.1-1.468-2.244-1.985-3.266-1.246c-0.72,0.521-0.864,1.513-0.597,2.362c0.077,0.235,0.214,0.524,0.395,0.783
			c1.354,1.932,2.031,2.898,3.385,4.83c-0.534,0.373-0.803,0.558-1.341,0.924c-1.29-1.89-1.935-2.835-3.224-4.725
			c-0.856-1.255-1.975-1.825-2.965-1.173c-0.813,0.535-0.939,1.643-0.684,2.509c0.062,0.265,0.191,0.534,0.35,0.783
			c1.237,1.943,1.856,2.915,3.094,4.858c-0.549,0.348-0.824,0.52-1.377,0.86C202.087,130.545,201.354,129.362,199.888,126.994z"/>
		<path id="XMLID_17_" fill="#C6C6C6" d="M220.404,120.515c-0.357-0.328-0.535-0.492-0.891-0.82
			c-0.017,0.015-0.026,0.022-0.043,0.037c0.104,0.903-0.216,2.067-1.233,2.911c-1.445,1.199-3.045,0.719-3.904-0.363
			c-1.435-1.807-0.721-3.943,1.874-6.167c-0.052-0.06-0.077-0.089-0.129-0.149c-0.517-0.597-1.589-1.529-2.946-0.391
			c-0.616,0.517-1.09,1.261-1.292,1.982c-0.399-0.266-0.598-0.4-0.996-0.668c0.233-0.844,0.814-1.75,1.639-2.445
			c2.004-1.687,3.791-0.646,5.062,0.783c0.949,1.067,1.424,1.6,2.373,2.667c0.551,0.619,1.117,1.199,1.636,1.608
			C221.097,119.909,220.867,120.112,220.404,120.515z M217.024,116.998c-1.364,1.131-2.703,2.659-1.531,4.097
			c0.711,0.871,1.605,0.83,2.26,0.282c0.917-0.767,0.977-1.864,0.646-2.648c-0.073-0.172-0.174-0.345-0.29-0.479
			C217.675,117.749,217.458,117.499,217.024,116.998z M211.828,109.855c0.115,1.401,0.163,2.105,0.239,3.519
			c-0.337,0.286-0.506,0.428-0.846,0.71c-0.247-1.262-0.377-1.89-0.651-3.14C211.076,110.513,211.328,110.295,211.828,109.855z"/>
		<path id="XMLID_14_" fill="#C6C6C6" d="M222.271,105.507c0.477,0.502,1.009,1.059,1.851,1.86c1.606,1.529,2.409,2.293,4.015,3.821
			c1.586,1.51,2.249,2.763,2.208,3.996c-0.041,1.259-0.791,2.44-1.661,3.292c-0.827,0.809-1.943,1.487-2.855,1.637
			c-0.233-0.506-0.35-0.758-0.585-1.262c0.726-0.141,1.686-0.561,2.533-1.391c1.269-1.244,1.516-2.833-0.206-4.515
			c-0.305-0.297-0.457-0.446-0.761-0.744c-0.011,0.011-0.016,0.017-0.027,0.028c0.273,0.991,0.073,2.213-0.963,3.228
			c-1.657,1.624-4.243,1.254-6.03-0.692c-2.189-2.382-2.028-5.022-0.613-6.414c1.071-1.053,2.262-1.038,3.093-0.762
			c0.01-0.01,0.015-0.016,0.025-0.026c-0.392-0.423-0.589-0.634-0.981-1.057C221.698,106.11,221.89,105.91,222.271,105.507z
			 M223.833,109.321c-0.212-0.207-0.408-0.372-0.63-0.485c-0.924-0.492-2.057-0.516-2.88,0.298
			c-1.081,1.068-0.909,2.826,0.607,4.433c1.286,1.363,3.027,1.875,4.32,0.597c0.736-0.727,0.918-1.871,0.38-2.902
			c-0.145-0.274-0.359-0.536-0.57-0.742C224.569,110.041,224.324,109.801,223.833,109.321z"/>
		<path id="XMLID_11_" fill="#C6C6C6" d="M228.391,106.369c1.772,1.539,3.474,1.088,4.583-0.219
			c0.793-0.936,1.096-1.649,1.288-2.323c0.458,0.224,0.687,0.336,1.146,0.558c-0.169,0.648-0.587,1.662-1.567,2.815
			c-1.899,2.231-4.508,2.187-6.627,0.237c-2.119-1.95-2.73-4.616-1.068-6.562c1.861-2.18,4.453-1.081,5.818,0.022
			c0.276,0.223,0.468,0.425,0.594,0.552C230.934,103.47,230.1,104.454,228.391,106.369z M230.616,101.868
			c-0.838-0.72-2.432-1.463-3.611-0.085c-1.061,1.239-0.334,2.842,0.475,3.743C228.758,104.093,229.386,103.361,230.616,101.868z"/>
		<path id="XMLID_9_" fill="#C6C6C6" d="M231.905,98.232c-0.777-0.607-1.427-1.089-2.082-1.531c0.351-0.452,0.525-0.68,0.871-1.137
			c0.524,0.353,0.786,0.529,1.311,0.881c0.009-0.012,0.013-0.017,0.022-0.029c-0.452-0.906-0.543-2.259,0.317-3.459
			c0.721-1.006,2.462-2.152,5.166-0.307c1.882,1.285,2.823,1.927,4.705,3.212c-0.397,0.585-0.597,0.876-1,1.454
			c-1.8-1.265-2.7-1.898-4.5-3.163c-1.258-0.884-2.612-1.169-3.52,0.086c-0.635,0.878-0.49,2.031,0.11,2.841
			c0.128,0.192,0.34,0.4,0.576,0.579c1.828,1.387,2.742,2.081,4.571,3.468c-0.421,0.558-0.633,0.836-1.059,1.387
			C235.198,100.801,234.1,99.945,231.905,98.232z"/>
		<path id="XMLID_6_" fill="#C6C6C6" d="M240.584,90.228c1.997,1.231,3.631,0.466,4.545-1.058c0.654-1.091,0.851-1.87,0.944-2.587
			c0.49,0.142,0.736,0.213,1.227,0.353c-0.073,0.687-0.341,1.791-1.15,3.136c-1.567,2.603-4.18,3.029-6.584,1.447
			c-2.404-1.583-3.408-4.158-2.036-6.429c1.538-2.544,4.289-1.913,5.815-1.049c0.309,0.175,0.53,0.344,0.674,0.45
			C242.697,86.837,242.009,87.985,240.584,90.228z M242.142,85.271c-0.944-0.574-2.645-1.031-3.62,0.577
			c-0.877,1.447,0.086,2.931,1.027,3.693C240.615,87.863,241.134,87.009,242.142,85.271z"/>
		<path id="XMLID_4_" fill="#C6C6C6" d="M247.333,84.039c0.546-0.304,1.304-0.966,1.721-1.767c0.607-1.166,0.318-2.007-0.387-2.362
			c-0.739-0.372-1.379-0.116-2.389,0.822c-1.346,1.251-2.568,1.51-3.57,0.961c-1.349-0.739-1.874-2.391-0.964-4.167
			c0.429-0.838,1.044-1.457,1.557-1.788c0.378,0.375,0.567,0.563,0.943,0.941c-0.378,0.229-0.962,0.699-1.361,1.476
			c-0.46,0.897-0.201,1.668,0.426,2c0.697,0.37,1.279,0.038,2.269-0.862c1.321-1.2,2.441-1.63,3.717-1.009
			c1.507,0.732,1.977,2.501,0.875,4.617c-0.508,0.976-1.214,1.746-1.895,2.168C247.9,84.655,247.711,84.449,247.333,84.039z"/>
	</g>
</g>
</svg>
