<?xml version="1.0" encoding="utf-8"?>
<!-- Generator: Adobe Illustrator 16.0.0, SVG Export Plug-In . SVG Version: 6.00 Build 0)  -->
<!DOCTYPE svg PUBLIC "-//W3C//DTD SVG 1.1//EN" "http://www.w3.org/Graphics/SVG/1.1/DTD/svg11.dtd">
<svg version="1.1" xmlns="http://www.w3.org/2000/svg" xmlns:xlink="http://www.w3.org/1999/xlink" x="0px" y="0px"
	 width="98.652px" height="80.533px" viewBox="0 0 98.652 80.533" enable-background="new 0 0 98.652 80.533" xml:space="preserve">
<g id="Soporte">
</g>
<g id="Imagenes">
</g>
<g id="Vectores">
</g>
<g id="Botones">
</g>
<g id="Iconos_1_">
	<g>
		<path fill="#FFFFFF" d="M93.985,22.195c-3.53-1.961-33.918-19.298-33.918-19.298L3.962,23.129c0,0-2.805,1.359-0.085,3.655
			l18.192,10.54l32.982,2.551l37.743-13.771C92.795,26.104,97.811,24.319,93.985,22.195z M54.372,34.946l-13.687-9.861
			l-19.127,6.461L11.443,25.68L59.812,8.252l26.607,15.387L54.372,34.946z"/>
		<path fill="#FFFFFF" d="M15.702,37.828l-5.619-3.222l-6.291,2.55c0,0-3.438,1.493,0.17,3.655
			c2.714,1.625,33.663,18.871,33.663,18.871l56.19-19.892c0,0,4.26-1.368-0.68-4.25c-2.596-1.515-5.355-2.976-5.355-2.976
			l-5.866,2.465l4.676,2.636L37.71,54.582L11.613,39.366L15.702,37.828z"/>
		<path fill="#FFFFFF" d="M15.702,53.639l-5.619-3.223l-6.291,2.551c0,0-3.438,1.493,0.17,3.654
			c2.714,1.626,33.663,18.872,33.663,18.872l56.19-19.892c0,0,4.26-1.368-0.68-4.25c-2.596-1.515-5.355-2.976-5.355-2.976
			l-5.866,2.466l4.676,2.635L37.71,70.393L11.613,55.177L15.702,53.639z"/>
	</g>
</g>
<g id="Logos">
</g>
<g id="TXT">
</g>
<g id="Guias">
</g>
</svg>
