<?xml version="1.0" encoding="utf-8"?>
<!-- Generator: Adobe Illustrator 16.0.0, SVG Export Plug-In . SVG Version: 6.00 Build 0)  -->
<!DOCTYPE svg PUBLIC "-//W3C//DTD SVG 1.1//EN" "http://www.w3.org/Graphics/SVG/1.1/DTD/svg11.dtd">
<svg version="1.1" xmlns="http://www.w3.org/2000/svg" xmlns:xlink="http://www.w3.org/1999/xlink" x="0px" y="0px" width="89.85px"
	 height="97.942px" viewBox="0 0 89.85 97.942" enable-background="new 0 0 89.85 97.942" xml:space="preserve">
<g id="Soporte">
</g>
<g id="Imagenes">
</g>
<g id="Vectores">
</g>
<g id="Botones">
</g>
<g id="Iconos_1_">
	<g>
		<path fill="#FFFFFF" d="M60.496,1.775l0.049,72.535l25.356,18.182l1.001-70.563L60.496,1.775z M76.833,43.131l-7-5.397v-2.806
			l7,5.61V43.131z M81.833,40.072l-16-12.028v-5.356l16,12.241V40.072z"/>
		<g>
			<path fill="#FFFFFF" d="M3.921,5.628L3.42,76.86l26.464,18.727l0.095-71.794L3.921,5.628z M24.833,90.013l-17-12.326V50.74
				l17,12.751V90.013z M11.833,40.285v-2.807l8,5.61v2.593L11.833,40.285z M24.833,42.622l-17-12.028v-5.356l17,12.241V42.622z"/>
		</g>
		<path fill="#FFFFFF" d="M59.171,1.775L31.833,23.877v71.235l27.484-21.082L59.171,1.775z M35.833,64.51l14-11.221v2.976
			l-14,11.815V64.51z M49.833,66.466l-14,11.815v-3.57l14-11.221V66.466z M53.833,58.305l-18,14.876v-3.57l18-14.281V58.305z
			 M53.833,48.105l-18,14.875v-3.57l18-14.281V48.105z M53.833,43.514l-18,14.876v-3.57l18-14.281V43.514z M53.833,33.313
			l-18,14.876V25.748l18-14.281V33.313z"/>
	</g>
</g>
<g id="Logos">
</g>
<g id="TXT">
</g>
<g id="Guias">
</g>
</svg>
