<?xml version="1.0" encoding="utf-8"?>
<!-- Generator: Adobe Illustrator 16.0.0, SVG Export Plug-In . SVG Version: 6.00 Build 0)  -->
<!DOCTYPE svg PUBLIC "-//W3C//DTD SVG 1.1//EN" "http://www.w3.org/Graphics/SVG/1.1/DTD/svg11.dtd">
<svg version="1.1" xmlns="http://www.w3.org/2000/svg" xmlns:xlink="http://www.w3.org/1999/xlink" x="0px" y="0px"
	 width="92.333px" height="91px" viewBox="0 0 92.333 91" enable-background="new 0 0 92.333 91" xml:space="preserve">
<g id="Soporte">
</g>
<g id="Imagenes">
</g>
<g id="Vectores">
</g>
<g id="Botones">
</g>
<g id="Iconos_1_">
	<g>
		<path fill="#FFFE00" d="M48.833,74.616v3.58c16-0.957,29.583-13.946,30.499-30.946h-3.579
			C74.845,62.25,62.833,73.668,48.833,74.616z"/>
		<path fill="#F0037F" d="M44.833,16.713v-3.579c-16,0.839-29.683,14.116-30.563,31.116h3.58
			C18.723,29.25,30.833,17.545,44.833,16.713z"/>
		<path fill="#353535" d="M17.856,47.25h-3.58c0.921,17,14.556,30.125,30.556,30.963v-3.579C30.833,73.803,18.77,62.25,17.856,47.25
			z"/>
		<path fill="#00A0C6" d="M75.759,44.25h3.58c-0.876-17-14.506-30.14-30.506-31.097v3.579C62.833,17.68,74.892,29.25,75.759,44.25z"
			/>
		<polygon fill="#FFFFFF" points="48.833,44.25 48.833,2.25 44.833,2.25 44.833,44.25 3.833,44.25 3.833,47.25 44.833,47.25 
			44.833,88.25 48.833,88.25 48.833,47.25 88.833,47.25 88.833,44.25 		"/>
		<circle fill="#FFFFFF" cx="46.804" cy="45.674" r="11.483"/>
	</g>
</g>
<g id="Logos">
</g>
<g id="TXT">
</g>
<g id="Guias">
</g>
</svg>
