<?xml version="1.0" encoding="utf-8"?>
<!-- Generator: Adobe Illustrator 16.0.0, SVG Export Plug-In . SVG Version: 6.00 Build 0)  -->
<!DOCTYPE svg PUBLIC "-//W3C//DTD SVG 1.1//EN" "http://www.w3.org/Graphics/SVG/1.1/DTD/svg11.dtd">
<svg version="1.1" xmlns="http://www.w3.org/2000/svg" xmlns:xlink="http://www.w3.org/1999/xlink" x="0px" y="0px"
	 width="69.938px" height="98.46px" viewBox="0 0 69.938 98.46" enable-background="new 0 0 69.938 98.46" xml:space="preserve">
<g id="Soporte">
</g>
<g id="Imagenes">
</g>
<g id="Vectores">
</g>
<g id="Botones">
</g>
<g id="Iconos_1_">
	<g>
		<path fill="#723E0F" d="M35.331,3.646c-14.769,0-31.916,11.14-31.916,31.415S35.08,94.01,35.08,94.01s31.665-39.174,31.665-59.074
			S50.099,3.646,35.331,3.646z M34.955,49.524c-7.949,0-14.393-6.443-14.393-14.393c0-7.948,6.443-14.393,14.393-14.393
			s14.394,6.444,14.394,14.393C49.349,43.081,42.904,49.524,34.955,49.524z"/>
		<path fill="#CCE70B" d="M20.51,35.131c0-7.926,6.323-14.354,14.323-14.391V3.651c-15,0.221-31.471,11.338-31.471,31.41
			c0,19.35,28.471,55.454,31.471,58.711V49.523C26.833,49.487,20.51,43.058,20.51,35.131z"/>
		<path fill="#80C41C" d="M66.745,34.936c0-19.9-16.673-31.29-31.44-31.29c-0.148,0-0.472,0.003-0.472,0.005v17.09
			c0,0,0.073-0.002,0.096-0.002c7.949,0,14.406,6.266,14.406,14.214c0,7.949-6.431,14.214-14.38,14.214c-0.022,0-0.122,0-0.122,0
			v44.605c0,0.155,0.221,0.238,0.221,0.238S66.745,54.836,66.745,34.936z"/>
		<path fill="#80C41C" d="M20.51,35.131c0-7.926,6.323-14.354,14.323-14.391v-9.763c-13,0.037-24.086,10.835-24.086,24.153
			s11.086,24.117,24.086,24.154v-9.763C26.833,49.487,20.51,43.058,20.51,35.131z"/>
		<path fill="#CCE70B" d="M48.57,35.077c0,7.928-6.606,14.355-14.325,14.393v9.762c13.15-0.037,24.087-10.836,24.087-24.154
			S47.396,10.961,34.245,10.924v9.762C41.964,20.723,48.57,27.151,48.57,35.077z"/>
	</g>
</g>
<g id="Logos">
</g>
<g id="TXT">
</g>
<g id="Guias">
</g>
</svg>
