<?xml version="1.0" encoding="utf-8"?>
<!-- Generator: Adobe Illustrator 16.0.0, SVG Export Plug-In . SVG Version: 6.00 Build 0)  -->
<!DOCTYPE svg PUBLIC "-//W3C//DTD SVG 1.1//EN" "http://www.w3.org/Graphics/SVG/1.1/DTD/svg11.dtd">
<svg version="1.1" xmlns="http://www.w3.org/2000/svg" xmlns:xlink="http://www.w3.org/1999/xlink" x="0px" y="0px"
	 width="413.979px" height="380.981px" viewBox="0 0 413.979 380.981" enable-background="new 0 0 413.979 380.981"
	 xml:space="preserve">
<g id="Soporte">
</g>
<g id="Imagenes">
</g>
<g id="Vectores">
</g>
<g id="Botones">
</g>
<g id="Iconos_1_">
</g>
<g id="Logos">
	<g>
		<g>
			<defs>
				<rect id="SVGID_73_" x="10.719" y="5.549" width="392.355" height="365.322"/>
			</defs>
			<clipPath id="SVGID_1_">
				<use xlink:href="#SVGID_73_"  overflow="visible"/>
			</clipPath>
			<g clip-path="url(#SVGID_1_)">
				<defs>
					<rect id="SVGID_75_" x="10.719" y="5.549" width="392.355" height="365.322"/>
				</defs>
				<clipPath id="SVGID_2_">
					<use xlink:href="#SVGID_75_"  overflow="visible"/>
				</clipPath>
				<path clip-path="url(#SVGID_2_)" d="M33.936,280.078c7.35,0,13.179,2.435,17.493,7.304c3.909,4.4,5.857,9.75,5.857,16.053
					c0,6.297-1.931,11.628-5.812,16c-4.314,4.863-10.159,7.298-17.539,7.298c-7.327,0-13.121-2.435-17.4-7.298
					c-3.886-4.412-5.817-9.784-5.817-16.15c0-6.292,1.92-11.6,5.776-15.942C20.769,282.495,26.586,280.078,33.936,280.078
					 M33.792,318.272c4.747,0,8.5-1.556,11.257-4.649c2.522-2.828,3.771-6.286,3.771-10.374c0-4.129-1.278-7.639-3.817-10.525
					c-2.851-3.215-6.69-4.834-11.49-4.834c-4.718,0-8.448,1.556-11.212,4.65c-2.48,2.798-3.718,6.239-3.718,10.327
					c0,4.135,1.272,7.646,3.812,10.571C25.216,316.664,29.015,318.272,33.792,318.272"/>
				<path clip-path="url(#SVGID_2_)" d="M62.866,279.337h13.768c3.979,0,7.384,1.376,10.235,4.141
					c2.863,2.752,4.286,6.118,4.286,10.091c0,4.065-1.377,7.431-4.141,10.096c-1.643,1.579-3.649,2.805-6.003,3.672
					c-0.717,0.249-2.122,0.463-4.209,0.63c-2.093,0.167-3.792,0.254-5.095,0.254h-0.554l0.092,17.811h-8.379V279.337z
					 M71.246,299.75h5.87c1.572,0,2.913-0.579,4.007-1.747c1.109-1.174,1.654-2.579,1.654-4.227s-0.544-3.076-1.654-4.279
					c-1.094-1.191-2.464-1.787-4.105-1.787h-5.771V299.75z"/>
				<rect x="96.365" y="279.985" clip-path="url(#SVGID_2_)" width="8.749" height="46.707"/>
				<path clip-path="url(#SVGID_2_)" d="M110.873,326.229v-31.856c0-4.065,1.499-7.523,4.494-10.356
					c2.989-2.846,6.551-4.262,10.681-4.262c4.244,0,7.927,1.394,11.05,4.187c3.111,2.799,4.678,6.245,4.678,10.339v31.949h-8.478
					v-31.492c0-1.926-0.693-3.557-2.093-4.886c-1.393-1.33-3.053-2.007-4.973-2.007c-2.019,0-3.718,0.74-5.094,2.209
					c-1.382,1.48-2.07,3.261-2.07,5.337v30.839H110.873z"/>
				<path clip-path="url(#SVGID_2_)" d="M169.873,280.078c7.35,0,13.179,2.435,17.486,7.304c3.91,4.4,5.864,9.75,5.864,16.053
					c0,6.297-1.943,11.628-5.812,16c-4.313,4.863-10.171,7.298-17.539,7.298c-7.326,0-13.12-2.435-17.4-7.298
					c-3.886-4.412-5.822-9.784-5.822-16.15c0-6.292,1.924-11.6,5.776-15.942C156.706,282.495,162.518,280.078,169.873,280.078
					 M169.729,318.272c4.742,0,8.495-1.556,11.254-4.649c2.52-2.828,3.775-6.286,3.775-10.374c0-4.129-1.278-7.639-3.815-10.525
					c-2.857-3.215-6.691-4.834-11.49-4.834c-4.719,0-8.449,1.556-11.219,4.65c-2.481,2.798-3.718,6.239-3.718,10.327
					c0,4.135,1.266,7.646,3.81,10.571C161.153,316.664,164.952,318.272,169.729,318.272"/>
				<path clip-path="url(#SVGID_2_)" d="M226.525,290.267c-0.271-0.498-0.913-0.983-1.919-1.446c-1.002-0.463-2.273-0.7-3.823-0.7
					c-1.445,0-3.127,0.329-5.043,0.977c-2.439,0.85-4.406,1.972-5.886,3.417c-1.082,1.012-1.892,1.955-2.429,2.811
					c-0.544,0.855-1.029,1.989-1.463,3.423c-0.249,0.804-0.416,1.544-0.509,2.209c-0.092,0.67-0.139,1.451-0.139,2.354
					c0,0.995,0.082,1.885,0.261,2.689c0.167,0.792,0.457,1.717,0.855,2.816c0.277,0.682,0.572,1.313,0.862,1.879
					c0.301,0.573,0.654,1.156,1.098,1.752c0.336,0.463,0.713,0.902,1.117,1.301c0.617,0.619,1.357,1.215,2.232,1.776
					c0.705,0.462,1.369,0.833,1.976,1.11c0.602,0.289,1.228,0.498,1.864,0.637c0.623,0.133,1.127,0.225,1.502,0.254
					c0.376,0.041,0.741,0.052,1.076,0.052v-7.598h-4.188v-7.713h12.555v24.049h-8.923c-1.676-0.243-3.152-0.578-4.429-1
					c-1.261-0.417-2.707-1.041-4.325-1.885c-1.296-0.677-2.302-1.266-3.024-1.764c-0.833-0.596-1.718-1.371-2.643-2.331
					c-0.683-0.688-1.273-1.347-1.753-1.984c-0.479-0.63-0.948-1.335-1.411-2.116c-1.215-2.012-2.065-3.973-2.544-5.869
					c-0.474-1.885-0.723-4.094-0.723-6.609c0-3.417,0.59-6.378,1.77-8.865c1.168-2.504,3.065-5.02,5.656-7.529
					c2.254-2.174,4.759-3.852,7.488-5.031c2.74-1.179,5.309-1.764,7.727-1.764c1.942,0,3.723,0.277,5.33,0.838
					c0.526,0.186,1.133,0.463,1.805,0.833V290.267z"/>
				<path clip-path="url(#SVGID_2_)" d="M231.834,279.43h14.785c4.073,0,7.495,1.636,10.287,4.927
					c2.452,2.88,3.672,5.956,3.672,9.212c0,3.412-0.878,6.355-2.642,8.818c-1.771,2.469-4.261,4.181-7.499,5.135l11.454,18.608
					h-10.188l-11.409-17.579v17.579h-8.46V279.43z M246.533,287.803c-1.613-0.226-3.082-0.33-4.418-0.33
					c-0.965,0-1.566,0.046-1.821,0.133v12.201c0.659,0.116,1.336,0.185,2.052,0.185c0.314,0,0.805-0.017,1.487-0.04
					c0.688-0.041,1.236-0.052,1.678-0.052c1.241,0,2.271-0.203,3.093-0.584c0.82-0.394,1.486-0.885,1.978-1.492
					c0.498-0.607,0.815-1.249,0.978-1.931c0.028-0.186,0.12-0.902,0.277-2.14c0.151-1.214-0.307-2.44-1.398-3.724
					C249.361,288.757,248.054,288.017,246.533,287.803"/>
				<path clip-path="url(#SVGID_2_)" d="M295.622,326.315h-8.01v-15.023h-13.397v15.023h-8.282v-31.538v-0.7
					c0-3.602,1.458-6.84,4.354-9.737c2.897-2.903,6.298-4.355,10.208-4.355c4,0,7.518,1.417,10.559,4.233
					c3.035,2.816,4.568,6.072,4.568,9.767V326.315z M287.612,293.985c0-1.793-0.7-3.302-2.109-4.516
					c-1.4-1.209-3.054-1.811-4.962-1.811c-1.718,0-3.191,0.619-4.452,1.868c-1.243,1.244-1.874,2.724-1.874,4.459v9.298h13.397
					V293.985z M293.668,263.892l-10.977,11.167l-5.781-0.011l11.171-11.161L293.668,263.892z"/>
				<path clip-path="url(#SVGID_2_)" d="M326.23,287.937h-10.804c-0.838,0-1.415,0.052-1.74,0.144
					c-0.323,0.093-0.862,0.417-1.607,0.978c-0.932,0.71-1.393,1.642-1.393,2.792v7.251h15.357v8.096h-15.357v19.117h-8.565v-32.718
					c0-2.261,0.208-4.048,0.606-5.355c0.4-1.324,1.269-2.677,2.586-4.053c1.319-1.376,2.706-2.446,4.164-3.186
					c1.734-0.896,3.562-1.342,5.487-1.342h11.266V287.937z"/>
				<rect x="330.832" y="279.985" clip-path="url(#SVGID_2_)" width="8.737" height="46.707"/>
				<path clip-path="url(#SVGID_2_)" d="M369.025,326.315c-0.375,0.064-0.781,0.093-1.209,0.093h-1.027
					c-6.292,0-11.779-2.284-16.44-6.853c-4.672-4.574-6.997-10.039-6.997-16.376c0-6.39,2.341-11.883,7.021-16.51
					c4.684-4.608,10.165-6.915,16.475-6.915h1.202h0.792v8.83c-0.618-0.086-1.243-0.133-1.862-0.133
					c-3.973,0-7.441,1.446-10.414,4.331c-2.983,2.875-4.471,6.321-4.471,10.328c0,3.984,1.487,7.465,4.471,10.42
					c2.973,2.943,6.453,4.417,10.466,4.417c0.678,0,1.342-0.069,1.995-0.185V326.315z"/>
				<path clip-path="url(#SVGID_2_)" d="M403.074,326.315h-7.991v-15.023h-13.411v15.023h-8.273v-31.538v-0.694
					c0-3.608,1.444-6.847,4.342-9.744c2.902-2.903,6.303-4.355,10.219-4.355c4,0,7.512,1.405,10.559,4.233
					c3.036,2.827,4.557,6.072,4.557,9.767V326.315z M395.083,293.985c0-1.793-0.718-3.302-2.111-4.516
					c-1.417-1.209-3.064-1.811-4.978-1.811c-1.713,0-3.192,0.63-4.441,1.868c-1.255,1.244-1.881,2.724-1.881,4.459v9.298h13.411
					V293.985z"/>
				<rect x="12.147" y="337.979" clip-path="url(#SVGID_2_)" width="2.92" height="31.66"/>
				<polygon clip-path="url(#SVGID_2_)" points="42.193,370.871 30.923,345.456 28.494,369.639 25.493,369.639 29.854,336.637 
					42.152,364.816 54.909,336.637 59.021,369.639 56.019,369.639 53.637,345.456 				"/>
				<path clip-path="url(#SVGID_2_)" d="M69.568,369.639v-31.66h5.852c2.302,0,4.007,0.122,5.094,0.37
					c1.082,0.243,2.035,0.653,2.839,1.209c1.006,0.728,1.782,1.706,2.342,2.96c0.561,1.261,0.839,2.648,0.839,4.181
					c0,3.007-0.862,5.222-2.567,6.621c-1.706,1.405-4.413,2.111-8.114,2.111h-3.365v14.208H69.568z M72.488,352.91h1.983
					c3.539,0,5.916-0.451,7.142-1.342c1.214-0.885,1.832-2.435,1.832-4.661c0-0.931-0.149-1.792-0.415-2.573
					c-0.29-0.792-0.707-1.498-1.261-2.116c-0.561-0.636-1.341-1.082-2.313-1.336c-0.989-0.266-2.648-0.387-4.985-0.387h-1.983
					V352.91z"/>
				<path clip-path="url(#SVGID_2_)" d="M115.986,369.639h-3.557l-11.265-15.093h-1.757v15.093h-2.909v-31.66h5.887
					c3.481,0,6.095,0.717,7.823,2.14c1.735,1.428,2.597,3.591,2.597,6.488c0,2.464-0.74,4.407-2.22,5.812
					c-1.487,1.417-3.534,2.128-6.13,2.128L115.986,369.639z M99.407,340.495v11.698h2.938c2.724,0,4.62-0.428,5.69-1.295
					c1.082-0.85,1.618-2.313,1.618-4.372c0-2.18-0.555-3.729-1.671-4.655c-1.11-0.919-2.995-1.376-5.638-1.376H99.407z"/>
				<polygon clip-path="url(#SVGID_2_)" points="124.676,369.639 124.676,337.979 140.567,337.979 140.567,340.686 127.597,340.686 
					127.597,350.591 140.567,350.591 140.567,353.292 127.597,353.292 127.597,366.933 140.567,366.933 140.567,369.639 				"/>
				<path clip-path="url(#SVGID_2_)" d="M149.743,364.313l2.499-1.307c0.474,1.55,1.273,2.764,2.422,3.626
					c1.157,0.85,2.522,1.284,4.13,1.284c2.041,0,3.62-0.596,4.759-1.775c1.14-1.191,1.706-2.816,1.706-4.91
					c0-1.527-0.376-2.805-1.151-3.811c-0.769-1.006-2.412-2.168-4.938-3.504c-3.227-1.682-5.373-3.163-6.448-4.446
					c-1.063-1.284-1.596-2.833-1.596-4.632c0-2.25,0.77-4.077,2.32-5.494c1.532-1.417,3.539-2.123,5.986-2.123
					c1.618,0,3.012,0.335,4.198,1.012c1.196,0.659,2.163,1.666,2.908,3.007l-2.26,1.347c-0.463-0.907-1.127-1.601-1.978-2.076
					c-0.862-0.48-1.867-0.717-3.035-0.717c-1.585,0-2.834,0.462-3.777,1.376c-0.936,0.914-1.398,2.157-1.398,3.712
					c0,2.215,1.856,4.285,5.568,6.199c0.671,0.347,1.185,0.619,1.532,0.804c2.736,1.486,4.558,2.886,5.482,4.204
					c0.92,1.318,1.377,3.036,1.377,5.141c0,2.833-0.833,5.095-2.521,6.748c-1.683,1.666-3.967,2.51-6.858,2.51
					c-2.1,0-3.909-0.526-5.401-1.549C151.762,367.904,150.6,366.366,149.743,364.313"/>
				<path clip-path="url(#SVGID_2_)" d="M211.879,353.875c0,2.232-0.429,4.354-1.296,6.361c-0.861,2.018-2.105,3.811-3.724,5.383
					c-1.654,1.579-3.522,2.799-5.593,3.626c-2.076,0.827-4.272,1.243-6.585,1.243c-2.308,0-4.499-0.416-6.569-1.243
					c-2.065-0.827-3.915-2.047-5.558-3.626c-1.631-1.596-2.886-3.406-3.736-5.401c-0.855-1.989-1.283-4.111-1.283-6.343
					c0-2.267,0.428-4.395,1.283-6.407c0.85-2.019,2.105-3.822,3.736-5.424c1.607-1.567,3.441-2.758,5.5-3.573
					c2.069-0.798,4.272-1.197,6.627-1.197c2.371,0,4.59,0.399,6.667,1.215c2.064,0.815,3.903,2.006,5.511,3.556
					c1.637,1.602,2.879,3.406,3.741,5.424C211.45,349.481,211.879,351.609,211.879,353.875 M194.681,367.916
					c1.908,0,3.7-0.353,5.395-1.041c1.699-0.694,3.231-1.706,4.591-3.036c1.331-1.336,2.348-2.857,3.059-4.569
					c0.711-1.711,1.064-3.503,1.064-5.395c0-1.903-0.353-3.701-1.053-5.396c-0.699-1.694-1.729-3.221-3.07-4.568
					c-1.331-1.325-2.851-2.342-4.557-3.03c-1.7-0.688-3.516-1.047-5.429-1.047c-1.897,0-3.69,0.359-5.373,1.047
					c-1.677,0.688-3.198,1.706-4.557,3.03c-1.347,1.359-2.376,2.892-3.076,4.568c-0.7,1.683-1.047,3.476-1.047,5.396
					c0,1.902,0.347,3.701,1.047,5.395c0.7,1.695,1.729,3.216,3.076,4.569c1.341,1.342,2.851,2.354,4.516,3.042
					C190.933,367.563,192.738,367.916,194.681,367.916"/>
				<path clip-path="url(#SVGID_2_)" d="M242.3,369.639h-3.556l-11.265-15.093h-1.751v15.093h-2.921v-31.66h5.897
					c3.481,0,6.083,0.717,7.819,2.14c1.729,1.428,2.597,3.591,2.597,6.488c0,2.464-0.748,4.407-2.233,5.812
					c-1.479,1.417-3.522,2.128-6.118,2.128L242.3,369.639z M225.729,340.495v11.698h2.938c2.711,0,4.607-0.428,5.683-1.295
					c1.076-0.85,1.615-2.313,1.615-4.372c0-2.18-0.556-3.729-1.672-4.655c-1.111-0.919-2.989-1.376-5.626-1.376H225.729z"/>
				<polygon clip-path="url(#SVGID_2_)" points="251.004,369.639 251.004,337.979 266.889,337.979 266.889,340.686 253.918,340.686 
					253.918,350.591 266.889,350.591 266.889,353.292 253.918,353.292 253.918,366.933 266.889,366.933 266.889,369.639 				"/>
				<path clip-path="url(#SVGID_2_)" d="M276.07,364.313l2.493-1.307c0.463,1.55,1.276,2.764,2.423,3.626
					c1.151,0.85,2.525,1.284,4.135,1.284c2.029,0,3.612-0.596,4.748-1.775c1.144-1.191,1.716-2.816,1.716-4.91
					c0-1.527-0.388-2.805-1.15-3.811c-0.774-1.006-2.422-2.168-4.944-3.504c-3.226-1.682-5.377-3.163-6.441-4.446
					c-1.07-1.284-1.596-2.833-1.596-4.632c0-2.25,0.769-4.077,2.308-5.494c1.537-1.417,3.539-2.123,5.995-2.123
					c1.604,0,3.002,0.335,4.194,1.012c1.19,0.659,2.162,1.666,2.902,3.007l-2.255,1.347c-0.469-0.907-1.129-1.601-1.983-2.076
					c-0.856-0.48-1.87-0.717-3.037-0.717c-1.572,0-2.833,0.462-3.765,1.376c-0.942,0.914-1.411,2.157-1.411,3.712
					c0,2.215,1.863,4.285,5.576,6.199c0.664,0.347,1.179,0.619,1.526,0.804c2.729,1.486,4.563,2.886,5.481,4.204
					s1.376,3.036,1.376,5.141c0,2.833-0.84,5.095-2.509,6.748c-1.69,1.666-3.973,2.51-6.87,2.51c-2.1,0-3.904-0.526-5.402-1.549
					C278.09,367.904,276.91,366.366,276.07,364.313"/>
				<path clip-path="url(#SVGID_2_)" d="M320.325,364.313l2.499-1.307c0.469,1.55,1.276,2.764,2.423,3.626
					c1.148,0.85,2.525,1.284,4.135,1.284c2.035,0,3.612-0.596,4.759-1.775c1.139-1.191,1.704-2.816,1.704-4.91
					c0-1.527-0.382-2.805-1.149-3.811c-0.77-1.006-2.411-2.168-4.945-3.504c-3.227-1.682-5.377-3.163-6.441-4.446
					c-1.064-1.284-1.602-2.833-1.602-4.632c0-2.25,0.775-4.077,2.319-5.494c1.537-1.417,3.538-2.123,5.984-2.123
					c1.607,0,3.013,0.335,4.203,1.012c1.198,0.659,2.164,1.666,2.904,3.007l-2.256,1.347c-0.475-0.907-1.134-1.601-1.989-2.076
					c-0.85-0.48-1.862-0.717-3.036-0.717c-1.572,0-2.84,0.462-3.764,1.376c-0.938,0.914-1.406,2.157-1.406,3.712
					c0,2.215,1.856,4.285,5.569,6.199c0.671,0.347,1.186,0.619,1.533,0.804c2.729,1.486,4.561,2.886,5.481,4.204
					c0.919,1.318,1.377,3.036,1.377,5.141c0,2.833-0.845,5.095-2.518,6.748c-1.683,1.666-3.965,2.51-6.856,2.51
					c-2.104,0-3.91-0.526-5.408-1.549C322.35,367.904,321.182,366.366,320.325,364.313"/>
				<path clip-path="url(#SVGID_2_)" d="M349.083,367.823c0-0.624,0.206-1.139,0.647-1.561c0.428-0.434,0.959-0.642,1.583-0.642
					c0.631,0,1.162,0.208,1.591,0.642c0.428,0.422,0.647,0.937,0.647,1.561c0,0.619-0.22,1.139-0.647,1.573
					c-0.429,0.422-0.96,0.636-1.591,0.636c-0.624,0-1.155-0.214-1.583-0.636C349.289,368.962,349.083,368.442,349.083,367.823"/>
				<path clip-path="url(#SVGID_2_)" d="M361.873,369.639l14.092-32.909l13.497,32.909h-3.175l-4.1-10.716h-13.108l-4.246,10.716
					H361.873z M370.068,356.454h11.176l-5.475-13.791L370.068,356.454z"/>
				<path clip-path="url(#SVGID_2_)" d="M397.788,367.823c0-0.624,0.222-1.139,0.647-1.561c0.428-0.434,0.961-0.642,1.591-0.642
					c0.626,0,1.151,0.208,1.591,0.642c0.428,0.422,0.642,0.937,0.642,1.561c0,0.619-0.214,1.139-0.642,1.573
					c-0.439,0.422-0.965,0.636-1.591,0.636c-0.63,0-1.163-0.214-1.591-0.636C398.01,368.962,397.788,368.442,397.788,367.823"/>
			</g>
			<g clip-path="url(#SVGID_1_)">
				<defs>
					<path id="SVGID_77_" d="M140.521,96.093c0.006-0.011,0.022-0.023,0.022-0.029C140.538,96.07,140.527,96.082,140.521,96.093
						 M140.543,96.064c0.024-0.052,0.053-0.104,0.065-0.15C140.583,95.96,140.562,96.012,140.543,96.064 M123.069,41.361
						c-0.087,0.075-0.18,0.156-0.238,0.231c-7.297,7.355-13.791,15.735-19.215,25.125c-5.417,9.391-9.431,19.199-12.154,29.196
						h49.146c0.954-2.047,1.983-4.047,3.127-6.031c1.273-2.215,2.678-4.308,4.118-6.349c0.416-0.579,0.844-1.151,1.283-1.735
						c0.394-0.514,0.787-1.029,1.203-1.533c0.446-0.555,0.892-1.098,1.354-1.642c0.44-0.503,0.867-1,1.301-1.492
						c0.468-0.509,0.943-1.023,1.417-1.521c0.457-0.491,0.949-0.995,1.417-1.469c0.469-0.474,0.96-0.937,1.434-1.394
						c0.508-0.486,1.035-0.971,1.568-1.44c0.485-0.428,0.959-0.85,1.457-1.272c0.555-0.474,1.11-0.942,1.676-1.394
						c0.498-0.405,0.989-0.775,1.499-1.168c0.589-0.439,1.179-0.879,1.786-1.307c0.18-0.157,0.376-0.313,0.585-0.446l-42.56-24.57
						C123.202,41.216,123.132,41.286,123.069,41.361"/>
				</defs>
				<clipPath id="SVGID_3_">
					<use xlink:href="#SVGID_77_"  overflow="visible"/>
				</clipPath>
				<polygon clip-path="url(#SVGID_3_)" fill="#FEA621" points="190.431,56.396 145.204,129.383 66.861,80.85 112.088,7.856 				"/>
			</g>
			<g clip-path="url(#SVGID_1_)">
				<defs>
					<path id="SVGID_79_" d="M91.461,95.914c-0.018,0.099-0.052,0.197-0.063,0.289c-0.035,0.116-0.075,0.226-0.094,0.324
						c-2.653,10.004-4.076,20.511-4.076,31.365c0,10.848,1.422,21.343,4.076,31.353l42.555-24.564c0,0.092,0.012,0.185,0.041,0.278
						c-0.237-2.331-0.335-4.684-0.335-7.066c0-2.423,0.098-4.794,0.335-7.147c0.053-0.538,0.093-1.064,0.168-1.602
						c0.012-0.116,0.023-0.232,0.028-0.341c0.071-0.566,0.146-1.122,0.232-1.677c0.005-0.087,0.018-0.185,0.029-0.278
						c0.098-0.573,0.173-1.157,0.266-1.729c0.012-0.092,0.052-0.191,0.052-0.283c0.104-0.567,0.208-1.139,0.318-1.7
						c0.046-0.145,0.058-0.3,0.104-0.451c0.086-0.509,0.208-1.019,0.313-1.521c0.069-0.278,0.139-0.556,0.202-0.827
						c0.081-0.382,0.174-0.751,0.26-1.127c0.127-0.451,0.244-0.908,0.376-1.359c0.052-0.191,0.098-0.399,0.144-0.59
						c0.173-0.607,0.358-1.22,0.544-1.827c0.005-0.035,0.034-0.064,0.034-0.104c0.782-2.527,1.701-5.042,2.788-7.512
						c0.005-0.017,0.024-0.052,0.024-0.075c0.242-0.555,0.485-1.105,0.74-1.648c0.034-0.058,0.063-0.121,0.087-0.179H91.461z"/>
				</defs>
				<clipPath id="SVGID_5_">
					<use xlink:href="#SVGID_79_"  overflow="visible"/>
				</clipPath>
				<rect x="87.229" y="95.914" clip-path="url(#SVGID_5_)" fill="#FF8000" width="53.379" height="63.331"/>
			</g>
			<g clip-path="url(#SVGID_1_)">
				<defs>
					<path id="SVGID_81_" d="M91.304,159.245c0.019,0.099,0.059,0.191,0.082,0.29c0.012,0.115,0.058,0.219,0.076,0.324
						c2.723,9.992,6.737,19.811,12.154,29.208c5.424,9.385,11.918,17.77,19.215,25.114l24.571-42.554
						c0.157,0.208,0.295,0.393,0.451,0.607c-1.452-2.024-2.845-4.129-4.118-6.338c-1.208-2.093-2.295-4.227-3.29-6.39
						c-0.208-0.474-0.434-0.942-0.637-1.434c-0.051-0.116-0.098-0.237-0.161-0.364c-0.208-0.503-0.427-1-0.625-1.515
						c-0.041-0.092-0.074-0.196-0.115-0.294c-0.214-0.532-0.421-1.064-0.619-1.603c-0.041-0.098-0.069-0.202-0.11-0.306
						c-0.197-0.526-0.381-1.063-0.561-1.584c-0.046-0.15-0.092-0.313-0.15-0.457c-0.162-0.497-0.323-0.977-0.485-1.469
						c-0.082-0.254-0.157-0.526-0.232-0.78c-0.115-0.382-0.231-0.77-0.329-1.151c-0.127-0.434-0.254-0.862-0.359-1.301
						c-0.063-0.203-0.11-0.422-0.167-0.648c-0.157-0.567-0.284-1.162-0.428-1.758c-0.012-0.063-0.04-0.127-0.046-0.196
						c-0.44-1.949-0.815-3.921-1.088-5.904c0-0.035-0.005-0.052-0.005-0.064c-0.099-0.601-0.161-1.22-0.237-1.827
						c-0.011-0.069-0.011-0.133-0.023-0.191c-0.075-0.561-0.127-1.133-0.168-1.7c-0.028-0.093-0.041-0.186-0.041-0.278
						L91.304,159.245z"/>
				</defs>
				<clipPath id="SVGID_7_">
					<use xlink:href="#SVGID_81_"  overflow="visible"/>
				</clipPath>
				<polygon clip-path="url(#SVGID_7_)" fill="#FD1A16" points="133.593,110.122 182.375,194.131 105.553,238.738 56.788,154.723 
									"/>
			</g>
			<g clip-path="url(#SVGID_1_)">
				<defs>
					<path id="SVGID_83_" d="M122.831,214.18c0.058,0.069,0.133,0.145,0.209,0.213c0.081,0.075,0.162,0.15,0.231,0.22
						c7.355,7.309,15.74,13.803,25.13,19.227c9.38,5.412,19.199,9.431,29.191,12.144v-49.141c0.035,0.012,0.064,0.029,0.099,0.041
						c-2.07-0.955-4.123-2.007-6.118-3.175c-2.227-1.272-4.349-2.66-6.373-4.129c-0.578-0.399-1.133-0.821-1.694-1.243
						c-0.521-0.411-1.052-0.815-1.573-1.232c-0.538-0.439-1.081-0.884-1.602-1.347c-0.515-0.428-1.018-0.861-1.527-1.313
						c-0.508-0.462-1.023-0.925-1.509-1.388c-0.496-0.479-1-0.954-1.485-1.446c-0.469-0.462-0.926-0.936-1.382-1.428
						c-0.486-0.515-0.966-1.029-1.44-1.561c-0.428-0.475-0.855-0.966-1.272-1.458c-0.474-0.549-0.931-1.11-1.388-1.671
						c-0.405-0.497-0.798-1.012-1.174-1.515c-0.44-0.584-0.885-1.15-1.301-1.746c-0.156-0.214-0.294-0.399-0.451-0.607
						L122.831,214.18z"/>
				</defs>
				<clipPath id="SVGID_9_">
					<use xlink:href="#SVGID_83_"  overflow="visible"/>
				</clipPath>
				<polygon clip-path="url(#SVGID_9_)" fill="#C2000B" points="140.358,146.043 212.375,195.386 160.152,271.566 88.147,222.217 
									"/>
			</g>
			<g clip-path="url(#SVGID_1_)">
				<defs>
					<rect id="SVGID_85_" x="10.719" y="5.549" width="392.355" height="365.322"/>
				</defs>
				<clipPath id="SVGID_11_">
					<use xlink:href="#SVGID_85_"  overflow="visible"/>
				</clipPath>
				<path clip-path="url(#SVGID_11_)" fill="#E0013F" d="M177.593,245.984c0.092,0.034,0.173,0.046,0.249,0.069
					c0.109,0.035,0.243,0.058,0.363,0.092c10.016,2.648,20.523,4.077,31.349,4.077c10.86,0,21.373-1.428,31.37-4.077l-24.558-42.554
					c0.127-0.011,0.23-0.018,0.374-0.041c-2.357,0.226-4.746,0.347-7.187,0.347c-2.47,0-4.922-0.132-7.321-0.358
					c-0.463-0.046-0.908-0.087-1.365-0.139c-0.209-0.035-0.417-0.058-0.637-0.086c-0.456-0.052-0.918-0.104-1.393-0.174
					c-0.214-0.023-0.416-0.063-0.63-0.098c-0.462-0.064-0.902-0.133-1.37-0.203c-0.244-0.051-0.486-0.098-0.741-0.144
					c-0.405-0.075-0.833-0.15-1.249-0.231c-0.313-0.063-0.636-0.127-0.955-0.197c-0.34-0.075-0.682-0.139-1.012-0.214
					c-0.469-0.11-0.937-0.22-1.404-0.341c-0.18-0.041-0.376-0.076-0.561-0.133c-0.631-0.156-1.261-0.33-1.897-0.503
					c-0.012-0.012-0.029-0.012-0.058-0.018c-3.823-1.076-7.581-2.469-11.271-4.175c-0.034-0.012-0.063-0.029-0.099-0.041V245.984z"
					/>
			</g>
			<g clip-path="url(#SVGID_1_)">
				<defs>
					<path id="SVGID_87_" d="M216.366,203.586c0.005,0,0.005,0,0.017,0C216.371,203.586,216.371,203.586,216.366,203.586
						 M216.383,203.586c0.121-0.006,0.219-0.012,0.357-0.035C216.62,203.568,216.504,203.58,216.383,203.586 M177.593,245.984
						c0.092,0.034,0.173,0.046,0.249,0.069c0.109,0.035,0.237,0.058,0.363,0.092c10.016,2.648,20.523,4.077,31.349,4.077
						c10.854,0,21.373-1.428,31.37-4.077l-24.558-42.56c-2.238,0.202-4.507,0.312-6.813,0.312c-2.47,0-4.915-0.132-7.321-0.358
						c-0.463-0.041-0.908-0.087-1.365-0.133c-0.209-0.041-0.417-0.063-0.637-0.092c-0.456-0.052-0.924-0.104-1.393-0.174
						c-0.214-0.023-0.422-0.063-0.63-0.104c-0.462-0.059-0.914-0.127-1.37-0.203c-0.244-0.046-0.486-0.093-0.741-0.139
						c-0.405-0.075-0.833-0.15-1.249-0.231c-0.313-0.063-0.636-0.127-0.955-0.197c-0.34-0.075-0.682-0.139-1.012-0.214
						c-0.469-0.11-0.937-0.22-1.404-0.341c-0.18-0.041-0.376-0.076-0.561-0.133c-0.631-0.156-1.261-0.33-1.897-0.503
						c-0.012-0.012-0.029-0.012-0.058-0.012c-3.823-1.082-7.581-2.475-11.271-4.181c-0.034-0.012-0.063-0.029-0.099-0.041V245.984z"
						/>
				</defs>
				<clipPath id="SVGID_13_">
					<use xlink:href="#SVGID_87_"  overflow="visible"/>
				</clipPath>
				<rect x="177.593" y="196.843" clip-path="url(#SVGID_13_)" fill="#E0013F" width="63.331" height="53.379"/>
			</g>
			<g clip-path="url(#SVGID_1_)">
				<defs>
					<rect id="SVGID_89_" x="10.719" y="5.549" width="392.355" height="365.322"/>
				</defs>
				<clipPath id="SVGID_15_">
					<use xlink:href="#SVGID_89_"  overflow="visible"/>
				</clipPath>
				<path clip-path="url(#SVGID_15_)" fill="#93014A" d="M247.573,193.714c-2.052,1.192-4.139,2.255-6.268,3.233
					c-0.51,0.243-1.058,0.48-1.572,0.711c-0.075,0.023-0.128,0.052-0.18,0.069c-0.555,0.249-1.146,0.485-1.706,0.705
					c-0.006,0.018-0.041,0.024-0.047,0.041c-1.243,0.486-2.485,0.949-3.741,1.376c-0.033,0.017-0.058,0.023-0.093,0.023
					c-0.607,0.214-1.214,0.41-1.826,0.601c-0.122,0.036-0.236,0.07-0.358,0.111c-0.533,0.156-1.048,0.306-1.579,0.468
					c-0.271,0.081-0.562,0.145-0.838,0.226c-0.365,0.099-0.734,0.197-1.11,0.295c-0.445,0.116-0.897,0.22-1.342,0.318
					c-0.203,0.052-0.411,0.099-0.612,0.151c-0.562,0.121-1.122,0.243-1.694,0.347c-0.094,0.029-0.187,0.046-0.284,0.064
					c-0.591,0.121-1.168,0.225-1.77,0.335c-0.081,0.011-0.138,0.023-0.22,0.028c-0.585,0.11-1.179,0.197-1.77,0.278
					c-0.081,0.011-0.149,0.029-0.237,0.041c-0.549,0.081-1.104,0.156-1.665,0.22c-0.121,0.006-0.249,0.029-0.341,0.041
					c-0.545,0.063-1.065,0.11-1.58,0.156c-0.144,0.018-0.247,0.029-0.374,0.041l24.558,42.554c0.11-0.023,0.197-0.052,0.308-0.075
					c0.104-0.029,0.195-0.064,0.307-0.086c9.991-2.712,19.81-6.731,29.196-12.149c9.396-5.418,17.78-11.912,25.129-19.221
					l-42.559-24.559c0.208-0.156,0.428-0.318,0.637-0.474C251.9,191.049,249.795,192.437,247.573,193.714"/>
			</g>
			<g clip-path="url(#SVGID_1_)">
				<defs>
					<path id="SVGID_91_" d="M247.573,193.709c-2.057,1.197-4.139,2.261-6.268,3.238c-0.51,0.243-1.058,0.48-1.572,0.711
						c-0.075,0.023-0.128,0.052-0.18,0.069c-0.555,0.249-1.146,0.492-1.706,0.705c-0.006,0.018-0.041,0.024-0.047,0.041
						c-1.249,0.486-2.485,0.949-3.741,1.376c-0.033,0.017-0.058,0.023-0.093,0.023c-0.607,0.214-1.214,0.41-1.826,0.596
						c-0.128,0.041-0.236,0.075-0.358,0.104c-0.533,0.167-1.048,0.318-1.579,0.479c-0.271,0.081-0.566,0.145-0.838,0.226
						c-0.365,0.099-0.74,0.197-1.11,0.295c-0.445,0.116-0.897,0.22-1.342,0.318c-0.203,0.052-0.411,0.099-0.612,0.151
						c-0.567,0.121-1.122,0.243-1.694,0.347c-0.094,0.029-0.192,0.046-0.284,0.064c-0.596,0.121-1.168,0.225-1.77,0.335
						c-0.087,0.011-0.138,0.023-0.22,0.028c-0.585,0.11-1.179,0.197-1.77,0.278c-0.081,0.011-0.156,0.035-0.237,0.041
						c-0.549,0.081-1.115,0.156-1.665,0.22c-0.121,0.006-0.249,0.029-0.347,0.041c-0.539,0.063-1.06,0.11-1.574,0.156
						c-0.144,0.023-0.247,0.029-0.374,0.035l24.558,42.56c0.11-0.023,0.202-0.052,0.308-0.075c0.104-0.029,0.201-0.052,0.307-0.086
						c9.991-2.712,19.804-6.731,29.196-12.155c9.396-5.413,17.78-11.906,25.129-19.215l-42.559-24.559
						c0.208-0.156,0.428-0.318,0.637-0.474C251.9,191.049,249.795,192.437,247.573,193.709"/>
				</defs>
				<clipPath id="SVGID_17_">
					<use xlink:href="#SVGID_91_"  overflow="visible"/>
				</clipPath>
				<polygon clip-path="url(#SVGID_17_)" fill="#93014A" points="192.032,203.458 276.365,155.388 320.188,232.279 235.848,280.338 
									"/>
			</g>
			<g clip-path="url(#SVGID_1_)">
				<defs>
					<path id="SVGID_93_" d="M275.395,165.895c-1.262,2.209-2.654,4.314-4.118,6.338c-0.415,0.596-0.849,1.162-1.295,1.734
						c-0.382,0.515-0.78,1.03-1.19,1.533c-0.44,0.556-0.908,1.11-1.354,1.66c-0.429,0.486-0.862,0.989-1.302,1.469
						c-0.456,0.526-0.942,1.041-1.423,1.544c-0.461,0.492-0.936,0.978-1.404,1.439c-0.486,0.492-0.966,0.966-1.457,1.429
						c-0.51,0.479-1.011,0.942-1.539,1.41c-0.491,0.446-0.976,0.879-1.49,1.307c-0.539,0.463-1.07,0.908-1.638,1.347
						c-0.503,0.417-1.019,0.821-1.556,1.22c-0.565,0.428-1.121,0.844-1.688,1.255c-0.209,0.156-0.429,0.318-0.637,0.474
						l42.559,24.559c0.06-0.07,0.152-0.127,0.222-0.208c0.079-0.081,0.145-0.156,0.22-0.226
						c7.309-7.344,13.791-15.729,19.216-25.114c5.417-9.397,9.437-19.216,12.144-29.208h-49.142
						c0.076-0.157,0.157-0.307,0.214-0.474C277.736,161.581,276.626,163.761,275.395,165.895"/>
				</defs>
				<clipPath id="SVGID_19_">
					<use xlink:href="#SVGID_93_"  overflow="visible"/>
				</clipPath>
				<polygon clip-path="url(#SVGID_19_)" fill="#4A007D" points="229.319,200.694 272.041,127.093 351.638,173.302 308.911,246.915 
									"/>
			</g>
			<g clip-path="url(#SVGID_1_)">
				<defs>
					<path id="SVGID_95_" d="M285.259,120.912c-0.011-0.116-0.023-0.231-0.034-0.347C285.23,120.681,285.235,120.79,285.259,120.912
						 M285.289,121.103c-0.019-0.069-0.024-0.133-0.03-0.19c0.196,2.295,0.323,4.62,0.323,6.979c0,2.354-0.108,4.684-0.323,6.985
						c-0.051,0.595-0.127,1.191-0.184,1.781c-0.013,0.046-0.013,0.075-0.013,0.116c-0.087,0.642-0.168,1.272-0.255,1.902v0.012
						c-0.282,2.012-0.641,3.996-1.093,5.957c-0.011,0.069-0.027,0.133-0.052,0.196c-0.133,0.596-0.271,1.191-0.417,1.758
						c-0.052,0.22-0.108,0.428-0.154,0.625c-0.133,0.445-0.238,0.884-0.366,1.336c-0.108,0.358-0.214,0.711-0.316,1.064
						c-0.093,0.301-0.174,0.573-0.255,0.862c-0.15,0.462-0.317,0.925-0.469,1.382c-0.052,0.185-0.104,0.364-0.174,0.538
						c-0.168,0.497-0.336,1-0.521,1.486c-0.046,0.133-0.098,0.277-0.149,0.422c-0.197,0.492-0.382,0.983-0.573,1.469
						c-0.047,0.15-0.099,0.29-0.18,0.44c-0.168,0.451-0.374,0.925-0.556,1.387c-0.086,0.162-0.148,0.318-0.206,0.492
						c-0.187,0.422-0.388,0.861-0.591,1.284c-0.057,0.167-0.138,0.317-0.214,0.474h49.142c0.021-0.104,0.057-0.203,0.086-0.307
						c0.041-0.104,0.046-0.202,0.082-0.306c2.647-10.01,4.07-20.505,4.07-31.353c0-10.854-1.423-21.361-4.07-31.365L285.289,121.103
						z"/>
				</defs>
				<clipPath id="SVGID_21_">
					<use xlink:href="#SVGID_95_"  overflow="visible"/>
				</clipPath>
				<rect x="278.522" y="96.526" clip-path="url(#SVGID_21_)" fill="#2E58A6" width="53.38" height="63.332"/>
			</g>
			<g clip-path="url(#SVGID_1_)">
				<defs>
					<path id="SVGID_97_" d="M271.45,83.764c-0.058-0.087-0.128-0.167-0.185-0.254C271.317,83.597,271.382,83.677,271.45,83.764
						 M271.734,84.158c-0.092-0.133-0.187-0.266-0.284-0.394c1.388,1.961,2.718,3.99,3.944,6.118
						c1.161,2.024,2.231,4.077,3.198,6.165c0.253,0.572,0.521,1.133,0.757,1.694c0,0.017,0,0.04,0.029,0.058
						c1.063,2.48,1.989,4.996,2.775,7.523c0.029,0.075,0.046,0.139,0.064,0.203c0.179,0.578,0.353,1.157,0.513,1.734
						c0.065,0.208,0.122,0.422,0.174,0.648c0.122,0.439,0.243,0.868,0.354,1.301c0.086,0.358,0.179,0.74,0.26,1.116
						c0.063,0.283,0.133,0.555,0.195,0.839c0.116,0.479,0.22,0.965,0.336,1.457c0.017,0.174,0.057,0.347,0.093,0.521
						c0.116,0.521,0.184,1.041,0.284,1.573c0.021,0.127,0.057,0.284,0.086,0.428c0.074,0.509,0.161,1.03,0.248,1.539
						c0.023,0.167,0.034,0.318,0.053,0.468c0.074,0.503,0.145,0.989,0.19,1.492c0.029,0.173,0.058,0.358,0.076,0.538
						c0.051,0.468,0.092,0.919,0.144,1.388c0.011,0.179,0.034,0.358,0.064,0.538l42.543-24.576
						c-0.036-0.098-0.041-0.208-0.082-0.294c-0.029-0.116-0.064-0.22-0.086-0.318c-2.707-9.998-6.727-19.805-12.144-29.196
						c-5.425-9.391-11.907-17.77-19.216-25.125L271.734,84.158z"/>
				</defs>
				<clipPath id="SVGID_23_">
					<use xlink:href="#SVGID_97_"  overflow="visible"/>
				</clipPath>
				<polygon clip-path="url(#SVGID_23_)" fill="#349980" points="280.507,142.024 241.855,54.597 318.578,20.676 357.253,108.086 
									"/>
			</g>
			<g clip-path="url(#SVGID_1_)">
				<defs>
					<path id="SVGID_99_" d="M241.538,58.922c-0.141-0.063-0.307-0.133-0.458-0.197c2.192,0.995,4.36,2.105,6.493,3.331
						c2.203,1.272,4.309,2.648,6.327,4.105c0.596,0.434,1.18,0.874,1.77,1.318c0.502,0.388,1.012,0.757,1.498,1.157
						c0.572,0.457,1.133,0.925,1.676,1.399c0.498,0.422,0.978,0.844,1.452,1.272c0.537,0.469,1.058,0.954,1.566,1.446
						c0.48,0.451,0.96,0.908,1.434,1.376c0.481,0.485,0.973,0.989,1.446,1.492c0.456,0.486,0.938,0.989,1.394,1.503
						c0.439,0.498,0.886,1.012,1.307,1.521c0.452,0.521,0.908,1.064,1.342,1.608c0.417,0.515,0.833,1.058,1.232,1.579
						c0.423,0.561,0.845,1.104,1.249,1.677c0.144,0.214,0.317,0.428,0.469,0.647l24.57-42.566c-0.075-0.069-0.141-0.15-0.22-0.225
						c-0.069-0.07-0.162-0.145-0.222-0.214c-7.349-7.304-15.733-13.792-25.129-19.216c-9.393-5.413-19.205-9.431-29.196-12.149
						V58.922z"/>
				</defs>
				<clipPath id="SVGID_25_">
					<use xlink:href="#SVGID_99_"  overflow="visible"/>
				</clipPath>
				<polygon clip-path="url(#SVGID_25_)" fill="#80C41C" points="277.371,110.37 205.783,58.65 260.012,-16.425 331.602,35.289 				
					"/>
			</g>
			<g clip-path="url(#SVGID_1_)">
				<defs>
					<path id="SVGID_101_" d="M177.905,9.695c-0.093,0.041-0.202,0.058-0.313,0.093c-9.992,2.718-19.811,6.737-29.191,12.149
						c-9.39,5.424-17.775,11.912-25.13,19.216l42.56,24.57c-0.208,0.133-0.405,0.289-0.585,0.446
						c2.002-1.463,4.124-2.84,6.327-4.112c2.058-1.191,4.151-2.273,6.285-3.25c0.498-0.243,1.013-0.463,1.544-0.683
						c0.063-0.035,0.157-0.075,0.219-0.104c0.55-0.237,1.105-0.474,1.648-0.682c0.047-0.029,0.111-0.046,0.168-0.069
						c0.561-0.226,1.146-0.451,1.723-0.66c0.046-0.028,0.111-0.046,0.157-0.069c0.572-0.214,1.173-0.417,1.746-0.613
						c0.098-0.023,0.197-0.063,0.278-0.092c0.555-0.185,1.093-0.364,1.642-0.538c0.214-0.063,0.446-0.133,0.66-0.185
						c0.416-0.133,0.844-0.266,1.266-0.382c0.399-0.115,0.81-0.214,1.203-0.335c0.249-0.052,0.515-0.116,0.752-0.196
						c0.561-0.133,1.145-0.272,1.722-0.411c0.07-0.012,0.146-0.041,0.208-0.046c2.591-0.59,5.228-1.041,7.894-1.342
						c0.046-0.012,0.069-0.012,0.098-0.023c0.59-0.069,1.192-0.115,1.81-0.174c0.063-0.017,0.116-0.017,0.173-0.023L178.205,9.631
						C178.107,9.643,178.01,9.684,177.905,9.695"/>
				</defs>
				<clipPath id="SVGID_27_">
					<use xlink:href="#SVGID_101_"  overflow="visible"/>
				</clipPath>
				<polygon clip-path="url(#SVGID_27_)" fill="#FFFF00" points="229.324,47.605 149.362,103.489 96.735,28.176 176.69,-27.695 				
					"/>
			</g>
			<g clip-path="url(#SVGID_1_)">
				<defs>
					<path id="SVGID_103_" d="M209.554,5.549c-10.826,0-21.333,1.429-31.349,4.083L202.77,52.18
						c-0.057,0.006-0.11,0.006-0.173,0.023c2.29-0.214,4.609-0.317,6.957-0.317c2.306,0,4.568,0.092,6.813,0.294
						c4.774,0.422,9.425,1.29,13.901,2.562c0.144,0.047,0.293,0.093,0.45,0.139c0.479,0.139,0.989,0.283,1.487,0.445
						c0.312,0.093,0.618,0.197,0.925,0.29c0.335,0.116,0.664,0.208,0.978,0.33c0.404,0.133,0.832,0.277,1.226,0.439
						c0.229,0.075,0.45,0.156,0.688,0.237c0.444,0.156,0.866,0.341,1.324,0.509c0.173,0.069,0.374,0.15,0.561,0.22
						c0.445,0.185,0.884,0.37,1.329,0.566c0.179,0.07,0.365,0.145,0.55,0.226c0.428,0.179,0.861,0.382,1.295,0.584
						c0.151,0.064,0.317,0.133,0.458,0.197V9.788c-0.122-0.035-0.249-0.063-0.377-0.104c-0.064-0.023-0.144-0.041-0.237-0.052
						C230.927,6.978,220.407,5.549,209.554,5.549z"/>
				</defs>
				<clipPath id="SVGID_29_">
					<use xlink:href="#SVGID_103_"  overflow="visible"/>
				</clipPath>
				<rect x="178.205" y="5.549" clip-path="url(#SVGID_29_)" fill="#CCE70B" width="63.333" height="53.374"/>
			</g>
			<g clip-path="url(#SVGID_1_)">
				<defs>
					<path id="SVGID_105_" d="M132.985,127.892c0,42.282,34.291,76.562,76.568,76.562c42.306,0,76.573-34.279,76.573-76.562
						c0-42.294-34.268-76.573-76.573-76.573C167.276,51.318,132.985,85.598,132.985,127.892"/>
				</defs>
				<clipPath id="SVGID_31_">
					<use xlink:href="#SVGID_105_"  overflow="visible"/>
				</clipPath>
				<rect x="93.502" y="-3.628" clip-path="url(#SVGID_31_)" fill="#B4B0AB" width="218.542" height="212.43"/>
			</g>
			<g clip-path="url(#SVGID_1_)">
				<defs>
					<path id="SVGID_107_" d="M186.538,109.231c0,0-2.556,49.852-14.306,65.014c-3.469,4.47-7.686,8.454-12.281,11.958
						c13.368,11.38,30.687,18.25,49.603,18.25c42.306,0,76.573-34.279,76.573-76.562c0-10.097-1.954-19.73-5.504-28.561
						C246.378,110.052,186.538,109.231,186.538,109.231"/>
				</defs>
				<clipPath id="SVGID_33_">
					<use xlink:href="#SVGID_107_"  overflow="visible"/>
				</clipPath>
				
					<linearGradient id="SVGID_35_" gradientUnits="userSpaceOnUse" x1="962.9224" y1="449.8618" x2="964.5803" y2="449.8618" gradientTransform="matrix(59.9371 74.0161 74.0161 -59.9371 -90824.1875 -44200.1641)">
					<stop  offset="0" style="stop-color:#FFFFFF"/>
					<stop  offset="0.0512" style="stop-color:#E0DFE0"/>
					<stop  offset="0.163" style="stop-color:#908D90"/>
					<stop  offset="0.2523" style="stop-color:#4D474D"/>
					<stop  offset="0.2982" style="stop-color:#635E62"/>
					<stop  offset="0.3865" style="stop-color:#878384"/>
					<stop  offset="0.4789" style="stop-color:#A5A2A1"/>
					<stop  offset="0.5752" style="stop-color:#BCBAB7"/>
					<stop  offset="0.6769" style="stop-color:#CCCBC7"/>
					<stop  offset="0.7877" style="stop-color:#D6D5D0"/>
					<stop  offset="0.9247" style="stop-color:#D9D8D3"/>
					<stop  offset="1" style="stop-color:#D9D8D3"/>
				</linearGradient>
				<polygon clip-path="url(#SVGID_33_)" fill="url(#SVGID_35_)" points="236.154,37.62 337.539,162.824 209.93,266.17 
					108.531,140.966 				"/>
			</g>
			<g clip-path="url(#SVGID_1_)">
				<defs>
					<path id="SVGID_110_" d="M186.851,109.884c0,0-2.55,50.106-14.364,65.338c-0.457,0.607-0.937,1.197-1.428,1.781
						c-0.087,0.11-0.173,0.202-0.26,0.3c-0.499,0.578-1.007,1.162-1.539,1.717c-0.029,0.063-0.081,0.104-0.144,0.156
						c-1.105,1.203-2.284,2.371-3.509,3.493v0.012l116.357-79.765c-0.301-0.885-0.62-1.77-0.961-2.631
						C236.24,116.529,186.851,109.884,186.851,109.884"/>
				</defs>
				<clipPath id="SVGID_37_">
					<use xlink:href="#SVGID_110_"  overflow="visible"/>
				</clipPath>
				
					<linearGradient id="SVGID_39_" gradientUnits="userSpaceOnUse" x1="949.0811" y1="438.7339" x2="950.7389" y2="438.7339" gradientTransform="matrix(20.9224 25.837 25.837 -20.9224 -30999.2402 -15238.1016)">
					<stop  offset="0" style="stop-color:#EDEFEC"/>
					<stop  offset="0.1328" style="stop-color:#D6D7D3"/>
					<stop  offset="0.2286" style="stop-color:#D1D1CD"/>
					<stop  offset="0.3433" style="stop-color:#C4C3C1"/>
					<stop  offset="0.5573" style="stop-color:#A3A0A0"/>
					<stop  offset="0.738" style="stop-color:#827D80"/>
					<stop  offset="0.7974" style="stop-color:#898487"/>
					<stop  offset="0.8852" style="stop-color:#9C9899"/>
					<stop  offset="0.9902" style="stop-color:#BBB9B6"/>
					<stop  offset="1" style="stop-color:#BEBCB9"/>
				</linearGradient>
				<polygon clip-path="url(#SVGID_37_)" fill="url(#SVGID_39_)" points="235.883,43.373 322.257,150.045 211.687,239.582 
					125.313,132.917 				"/>
			</g>
			<g clip-path="url(#SVGID_1_)">
				<defs>
					<path id="SVGID_113_" d="M132.985,127.892c0,23.951,11.01,45.33,28.231,59.37c4.256-3.244,8.154-6.945,11.397-11.138
						c11.814-15.231,14.237-66.24,14.237-66.24s50.235,6.378,94.159-9.582c-11.074-28.653-38.884-48.984-71.456-48.984
						C167.276,51.318,132.985,85.598,132.985,127.892"/>
				</defs>
				<clipPath id="SVGID_41_">
					<use xlink:href="#SVGID_113_"  overflow="visible"/>
				</clipPath>
				
					<linearGradient id="SVGID_43_" gradientUnits="userSpaceOnUse" x1="963.8462" y1="451.0776" x2="965.5045" y2="451.0776" gradientTransform="matrix(74.7114 91.2317 91.2317 -74.7114 -113058.2734 -54238.332)">
					<stop  offset="0" style="stop-color:#F8F7F6"/>
					<stop  offset="0.4672" style="stop-color:#F8F7F6"/>
					<stop  offset="0.6586" style="stop-color:#F6F6F4"/>
					<stop  offset="0.6873" style="stop-color:#F2F1EF"/>
					<stop  offset="0.8298" style="stop-color:#E0DFDA"/>
					<stop  offset="0.9247" style="stop-color:#D9D8D3"/>
					<stop  offset="1" style="stop-color:#D9D8D3"/>
				</linearGradient>
				<polygon clip-path="url(#SVGID_41_)" fill="url(#SVGID_43_)" points="221.594,-21.236 347.646,132.691 192.413,259.822 
					66.353,105.9 				"/>
			</g>
		</g>
	</g>
</g>
<g id="TXT">
</g>
<g id="Guias">
</g>
</svg>
