<?xml version="1.0" encoding="utf-8"?>
<!-- Generator: Adobe Illustrator 16.0.0, SVG Export Plug-In . SVG Version: 6.00 Build 0)  -->
<!DOCTYPE svg PUBLIC "-//W3C//DTD SVG 1.1//EN" "http://www.w3.org/Graphics/SVG/1.1/DTD/svg11.dtd">
<svg version="1.1" xmlns="http://www.w3.org/2000/svg" xmlns:xlink="http://www.w3.org/1999/xlink" x="0px" y="0px"
	 width="264.023px" height="263.027px" viewBox="0 0 264.023 263.027" enable-background="new 0 0 264.023 263.027"
	 xml:space="preserve">
<g id="Soporte">
</g>
<g id="Imagenes">
</g>
<g id="Vectores">
</g>
<g id="Botones">
</g>
<g id="Iconos_1_">
</g>
<g id="Logos">
	<g>
		<g>
			<defs>
				<path id="SVGID_179_" d="M61.947,99.44c0.006-0.011,0.022-0.023,0.022-0.029C61.963,99.417,61.953,99.429,61.947,99.44
					 M61.969,99.411c0.024-0.052,0.053-0.104,0.065-0.15C62.009,99.307,61.987,99.359,61.969,99.411 M44.495,44.708
					c-0.087,0.075-0.18,0.156-0.238,0.231c-7.297,7.355-13.791,15.735-19.215,25.125c-5.417,9.391-9.431,19.199-12.154,29.196
					h49.146c0.954-2.047,1.983-4.047,3.127-6.031c1.273-2.215,2.678-4.308,4.118-6.349c0.416-0.579,0.844-1.151,1.283-1.735
					c0.394-0.514,0.787-1.029,1.203-1.533c0.446-0.555,0.892-1.098,1.354-1.642c0.44-0.503,0.867-1,1.301-1.492
					c0.468-0.509,0.943-1.023,1.417-1.521c0.457-0.491,0.949-0.995,1.417-1.469c0.469-0.474,0.96-0.937,1.434-1.394
					c0.508-0.486,1.035-0.971,1.568-1.44c0.485-0.428,0.959-0.85,1.457-1.272c0.555-0.474,1.11-0.942,1.676-1.394
					c0.498-0.405,0.989-0.775,1.499-1.168c0.589-0.439,1.179-0.879,1.786-1.307c0.18-0.157,0.376-0.313,0.585-0.446L44.697,44.5
					C44.628,44.563,44.558,44.633,44.495,44.708"/>
			</defs>
			<clipPath id="SVGID_2_">
				<use xlink:href="#SVGID_179_"  overflow="visible"/>
			</clipPath>
			<polygon clip-path="url(#SVGID_2_)" fill="#FEA621" points="111.856,59.743 66.63,132.73 -11.713,84.197 33.514,11.203 			"/>
		</g>
		<g>
			<defs>
				<path id="SVGID_181_" d="M12.887,99.261c-0.018,0.099-0.052,0.197-0.063,0.289c-0.035,0.116-0.075,0.226-0.094,0.324
					c-2.653,10.004-4.076,20.511-4.076,31.365c0,10.848,1.422,21.343,4.076,31.353l42.555-24.564c0,0.092,0.012,0.185,0.041,0.278
					c-0.237-2.331-0.335-4.684-0.335-7.066c0-2.423,0.098-4.794,0.335-7.147c0.053-0.538,0.093-1.064,0.168-1.602
					c0.012-0.116,0.023-0.232,0.028-0.341c0.071-0.566,0.146-1.122,0.232-1.677c0.005-0.087,0.018-0.185,0.029-0.278
					c0.098-0.573,0.173-1.157,0.266-1.729c0.012-0.092,0.052-0.191,0.052-0.283c0.104-0.567,0.208-1.139,0.318-1.7
					c0.046-0.145,0.058-0.3,0.104-0.451c0.086-0.509,0.208-1.019,0.313-1.521c0.069-0.278,0.139-0.556,0.202-0.827
					c0.081-0.382,0.174-0.751,0.26-1.127c0.127-0.451,0.244-0.908,0.376-1.359c0.052-0.191,0.098-0.399,0.144-0.59
					c0.173-0.607,0.358-1.22,0.544-1.827c0.005-0.035,0.034-0.064,0.034-0.104c0.782-2.527,1.701-5.042,2.788-7.512
					c0.005-0.017,0.024-0.052,0.024-0.075c0.242-0.555,0.485-1.105,0.74-1.648c0.034-0.058,0.063-0.121,0.087-0.179H12.887z"/>
			</defs>
			<clipPath id="SVGID_4_">
				<use xlink:href="#SVGID_181_"  overflow="visible"/>
			</clipPath>
			<rect x="8.654" y="99.261" clip-path="url(#SVGID_4_)" fill="#FF8000" width="53.379" height="63.331"/>
		</g>
		<g>
			<defs>
				<path id="SVGID_183_" d="M12.73,162.592c0.019,0.099,0.059,0.191,0.082,0.29c0.012,0.115,0.058,0.219,0.076,0.324
					c2.723,9.992,6.737,19.811,12.154,29.208c5.424,9.385,11.918,17.77,19.215,25.114l24.571-42.554
					c0.157,0.208,0.295,0.393,0.451,0.607c-1.452-2.024-2.845-4.129-4.118-6.338c-1.208-2.093-2.295-4.227-3.29-6.39
					c-0.208-0.474-0.434-0.942-0.637-1.434c-0.051-0.116-0.098-0.237-0.161-0.364c-0.208-0.503-0.427-1-0.625-1.515
					c-0.041-0.092-0.074-0.196-0.115-0.294c-0.214-0.532-0.421-1.064-0.619-1.603c-0.041-0.098-0.069-0.202-0.11-0.306
					c-0.197-0.526-0.381-1.063-0.561-1.584c-0.046-0.15-0.092-0.313-0.15-0.457c-0.162-0.497-0.323-0.977-0.485-1.469
					c-0.082-0.254-0.157-0.526-0.232-0.78c-0.115-0.382-0.231-0.77-0.329-1.151c-0.127-0.434-0.254-0.862-0.359-1.301
					c-0.063-0.203-0.11-0.422-0.167-0.648c-0.157-0.567-0.284-1.162-0.428-1.758c-0.012-0.063-0.04-0.127-0.046-0.196
					c-0.44-1.949-0.815-3.921-1.088-5.904c0-0.035-0.005-0.052-0.005-0.064c-0.099-0.601-0.161-1.22-0.237-1.827
					c-0.011-0.069-0.011-0.133-0.023-0.191c-0.075-0.561-0.127-1.133-0.168-1.7c-0.028-0.093-0.041-0.186-0.041-0.278L12.73,162.592
					z"/>
			</defs>
			<clipPath id="SVGID_6_">
				<use xlink:href="#SVGID_183_"  overflow="visible"/>
			</clipPath>
			<polygon clip-path="url(#SVGID_6_)" fill="#FD1A16" points="55.019,113.469 103.801,197.479 26.979,242.085 -21.786,158.07 			
				"/>
		</g>
		<g>
			<defs>
				<path id="SVGID_185_" d="M44.257,217.527c0.058,0.069,0.133,0.145,0.209,0.213c0.081,0.075,0.162,0.15,0.231,0.22
					c7.355,7.309,15.74,13.803,25.13,19.227c9.38,5.412,19.199,9.431,29.191,12.144V200.19c0.035,0.012,0.064,0.029,0.099,0.041
					c-2.07-0.955-4.123-2.007-6.118-3.175c-2.227-1.272-4.349-2.66-6.373-4.129c-0.578-0.399-1.133-0.821-1.694-1.243
					c-0.521-0.411-1.052-0.815-1.573-1.232c-0.538-0.439-1.081-0.884-1.602-1.347c-0.515-0.428-1.018-0.861-1.527-1.313
					c-0.508-0.462-1.023-0.925-1.509-1.388c-0.496-0.479-1-0.954-1.485-1.446c-0.469-0.462-0.926-0.936-1.382-1.428
					c-0.486-0.515-0.966-1.029-1.44-1.561c-0.428-0.475-0.855-0.966-1.272-1.458c-0.474-0.549-0.931-1.11-1.388-1.671
					c-0.405-0.497-0.798-1.012-1.174-1.515c-0.44-0.584-0.885-1.15-1.301-1.746c-0.156-0.214-0.294-0.399-0.451-0.607
					L44.257,217.527z"/>
			</defs>
			<clipPath id="SVGID_8_">
				<use xlink:href="#SVGID_185_"  overflow="visible"/>
			</clipPath>
			<polygon clip-path="url(#SVGID_8_)" fill="#C2000B" points="61.784,149.39 133.801,198.733 81.578,274.913 9.573,225.564 			"/>
		</g>
		<g>
			<defs>
				<path id="SVGID_187_" d="M137.792,206.933c0.005,0,0.005,0,0.017,0C137.797,206.933,137.797,206.933,137.792,206.933
					 M137.809,206.933c0.121-0.006,0.219-0.012,0.357-0.035C138.046,206.916,137.93,206.927,137.809,206.933 M99.019,249.331
					c0.092,0.034,0.173,0.046,0.249,0.069c0.109,0.035,0.237,0.058,0.363,0.092c10.016,2.648,20.523,4.077,31.349,4.077
					c10.854,0,21.373-1.428,31.37-4.077l-24.558-42.56c-2.238,0.202-4.507,0.312-6.813,0.312c-2.47,0-4.915-0.132-7.321-0.358
					c-0.463-0.041-0.908-0.087-1.365-0.133c-0.209-0.041-0.417-0.063-0.637-0.092c-0.456-0.052-0.924-0.104-1.393-0.174
					c-0.214-0.023-0.422-0.063-0.63-0.104c-0.462-0.059-0.914-0.127-1.37-0.203c-0.244-0.046-0.486-0.093-0.741-0.139
					c-0.405-0.075-0.833-0.15-1.249-0.231c-0.313-0.063-0.636-0.127-0.955-0.197c-0.34-0.075-0.682-0.139-1.012-0.214
					c-0.469-0.11-0.937-0.22-1.404-0.341c-0.18-0.041-0.376-0.076-0.561-0.133c-0.631-0.156-1.261-0.33-1.897-0.503
					c-0.012-0.012-0.029-0.012-0.058-0.012c-3.823-1.082-7.581-2.475-11.271-4.181c-0.034-0.012-0.063-0.029-0.099-0.041V249.331z"
					/>
			</defs>
			<clipPath id="SVGID_10_">
				<use xlink:href="#SVGID_187_"  overflow="visible"/>
			</clipPath>
			<rect x="99.019" y="200.19" clip-path="url(#SVGID_10_)" fill="#E0013F" width="63.331" height="53.379"/>
		</g>
		<g>
			<defs>
				<path id="SVGID_189_" d="M168.999,197.056c-2.057,1.197-4.139,2.261-6.268,3.238c-0.51,0.243-1.058,0.48-1.572,0.711
					c-0.075,0.023-0.128,0.052-0.18,0.069c-0.555,0.249-1.146,0.492-1.706,0.705c-0.006,0.018-0.041,0.024-0.047,0.041
					c-1.249,0.486-2.485,0.949-3.741,1.376c-0.033,0.017-0.058,0.023-0.093,0.023c-0.607,0.214-1.214,0.41-1.826,0.596
					c-0.128,0.041-0.236,0.075-0.358,0.104c-0.533,0.167-1.048,0.318-1.579,0.479c-0.271,0.081-0.566,0.145-0.838,0.226
					c-0.365,0.099-0.74,0.197-1.11,0.295c-0.445,0.116-0.897,0.22-1.342,0.318c-0.203,0.052-0.411,0.099-0.612,0.151
					c-0.567,0.121-1.122,0.243-1.694,0.347c-0.094,0.029-0.192,0.046-0.284,0.064c-0.596,0.121-1.168,0.225-1.77,0.335
					c-0.087,0.011-0.138,0.023-0.22,0.028c-0.585,0.11-1.179,0.197-1.77,0.278c-0.081,0.011-0.156,0.035-0.237,0.041
					c-0.549,0.081-1.115,0.156-1.665,0.22c-0.121,0.006-0.249,0.029-0.347,0.041c-0.539,0.063-1.06,0.11-1.574,0.156
					c-0.144,0.023-0.247,0.029-0.374,0.035l24.558,42.56c0.11-0.023,0.202-0.052,0.308-0.075c0.104-0.029,0.201-0.052,0.307-0.086
					c9.991-2.712,19.804-6.731,29.196-12.155c9.396-5.413,17.78-11.906,25.129-19.215l-42.559-24.559
					c0.208-0.156,0.428-0.318,0.637-0.474C173.326,194.396,171.221,195.784,168.999,197.056"/>
			</defs>
			<clipPath id="SVGID_12_">
				<use xlink:href="#SVGID_189_"  overflow="visible"/>
			</clipPath>
			<polygon clip-path="url(#SVGID_12_)" fill="#93014A" points="113.458,206.806 197.791,158.735 241.613,235.626 157.273,283.685 
							"/>
		</g>
		<g>
			<defs>
				<path id="SVGID_191_" d="M196.82,169.242c-1.262,2.209-2.654,4.314-4.118,6.338c-0.415,0.596-0.849,1.162-1.295,1.734
					c-0.382,0.515-0.78,1.03-1.19,1.533c-0.44,0.556-0.908,1.11-1.354,1.66c-0.429,0.486-0.862,0.989-1.302,1.469
					c-0.456,0.526-0.942,1.041-1.423,1.544c-0.461,0.492-0.936,0.978-1.404,1.439c-0.486,0.492-0.966,0.966-1.457,1.429
					c-0.51,0.479-1.011,0.942-1.539,1.41c-0.491,0.446-0.976,0.879-1.49,1.307c-0.539,0.463-1.07,0.908-1.638,1.347
					c-0.503,0.417-1.019,0.821-1.556,1.22c-0.565,0.428-1.121,0.844-1.688,1.255c-0.209,0.156-0.429,0.318-0.637,0.474
					l42.559,24.559c0.06-0.07,0.152-0.127,0.222-0.208c0.079-0.081,0.145-0.156,0.22-0.226c7.309-7.344,13.791-15.729,19.216-25.114
					c5.417-9.397,9.437-19.216,12.144-29.208h-49.142c0.076-0.157,0.157-0.307,0.214-0.474
					C199.162,164.928,198.052,167.108,196.82,169.242"/>
			</defs>
			<clipPath id="SVGID_14_">
				<use xlink:href="#SVGID_191_"  overflow="visible"/>
			</clipPath>
			<polygon clip-path="url(#SVGID_14_)" fill="#4A007D" points="150.745,204.042 193.467,130.44 273.063,176.649 230.337,250.262 
							"/>
		</g>
		<g>
			<defs>
				<path id="SVGID_193_" d="M206.685,124.259c-0.011-0.116-0.023-0.231-0.034-0.347
					C206.656,124.028,206.661,124.137,206.685,124.259 M206.715,124.45c-0.019-0.069-0.024-0.133-0.03-0.19
					c0.196,2.295,0.323,4.62,0.323,6.979c0,2.354-0.108,4.684-0.323,6.985c-0.051,0.595-0.127,1.191-0.184,1.781
					c-0.013,0.046-0.013,0.075-0.013,0.116c-0.087,0.642-0.168,1.272-0.255,1.902v0.012c-0.282,2.012-0.641,3.996-1.093,5.957
					c-0.011,0.069-0.027,0.133-0.052,0.196c-0.133,0.596-0.271,1.191-0.417,1.758c-0.052,0.22-0.108,0.428-0.154,0.625
					c-0.133,0.445-0.238,0.884-0.366,1.336c-0.108,0.358-0.214,0.711-0.316,1.064c-0.093,0.301-0.174,0.573-0.255,0.862
					c-0.15,0.462-0.317,0.925-0.469,1.382c-0.052,0.185-0.104,0.364-0.174,0.538c-0.168,0.497-0.336,1-0.521,1.486
					c-0.046,0.133-0.098,0.277-0.149,0.422c-0.197,0.492-0.382,0.983-0.573,1.469c-0.047,0.15-0.099,0.29-0.18,0.44
					c-0.168,0.451-0.374,0.925-0.556,1.387c-0.086,0.162-0.148,0.318-0.206,0.492c-0.187,0.422-0.388,0.861-0.591,1.284
					c-0.057,0.167-0.138,0.317-0.214,0.474h49.142c0.021-0.104,0.057-0.203,0.086-0.307c0.041-0.104,0.046-0.202,0.082-0.306
					c2.647-10.01,4.07-20.505,4.07-31.353c0-10.854-1.423-21.361-4.07-31.365L206.715,124.45z"/>
			</defs>
			<clipPath id="SVGID_16_">
				<use xlink:href="#SVGID_193_"  overflow="visible"/>
			</clipPath>
			<rect x="199.948" y="99.874" clip-path="url(#SVGID_16_)" fill="#2E58A6" width="53.38" height="63.332"/>
		</g>
		<g>
			<defs>
				<path id="SVGID_195_" d="M192.876,87.111c-0.058-0.087-0.128-0.167-0.185-0.254C192.743,86.944,192.808,87.024,192.876,87.111
					 M193.16,87.505c-0.092-0.133-0.187-0.266-0.284-0.394c1.388,1.961,2.718,3.99,3.944,6.118c1.161,2.024,2.231,4.077,3.198,6.165
					c0.253,0.572,0.521,1.133,0.757,1.694c0,0.017,0,0.04,0.029,0.058c1.063,2.48,1.989,4.996,2.775,7.523
					c0.029,0.075,0.046,0.139,0.064,0.203c0.179,0.578,0.353,1.157,0.513,1.734c0.065,0.208,0.122,0.422,0.174,0.648
					c0.122,0.439,0.243,0.868,0.354,1.301c0.086,0.358,0.179,0.74,0.26,1.116c0.063,0.283,0.133,0.555,0.195,0.839
					c0.116,0.479,0.22,0.965,0.336,1.457c0.017,0.174,0.057,0.347,0.093,0.521c0.116,0.521,0.184,1.041,0.284,1.573
					c0.021,0.127,0.057,0.284,0.086,0.428c0.074,0.509,0.161,1.03,0.248,1.539c0.023,0.167,0.034,0.318,0.053,0.468
					c0.074,0.503,0.145,0.989,0.19,1.492c0.029,0.173,0.058,0.358,0.076,0.538c0.051,0.468,0.092,0.919,0.144,1.388
					c0.011,0.179,0.034,0.358,0.064,0.538l42.543-24.576c-0.036-0.098-0.041-0.208-0.082-0.294c-0.029-0.116-0.064-0.22-0.086-0.318
					c-2.707-9.998-6.727-19.805-12.144-29.196c-5.425-9.391-11.907-17.77-19.216-25.125L193.16,87.505z"/>
			</defs>
			<clipPath id="SVGID_18_">
				<use xlink:href="#SVGID_195_"  overflow="visible"/>
			</clipPath>
			<polygon clip-path="url(#SVGID_18_)" fill="#349980" points="201.933,145.371 163.281,57.944 240.004,24.023 278.679,111.434 			
				"/>
		</g>
		<g>
			<defs>
				<path id="SVGID_197_" d="M162.964,62.27c-0.141-0.063-0.307-0.133-0.458-0.197c2.192,0.995,4.36,2.105,6.493,3.331
					c2.203,1.272,4.309,2.648,6.327,4.105c0.596,0.434,1.18,0.874,1.77,1.318c0.502,0.388,1.012,0.757,1.498,1.157
					c0.572,0.457,1.133,0.925,1.676,1.399c0.498,0.422,0.978,0.844,1.452,1.272c0.537,0.469,1.058,0.954,1.566,1.446
					c0.48,0.451,0.96,0.908,1.434,1.376c0.481,0.485,0.973,0.989,1.446,1.492c0.456,0.486,0.938,0.989,1.394,1.503
					c0.439,0.498,0.886,1.012,1.307,1.521c0.452,0.521,0.908,1.064,1.342,1.608c0.417,0.515,0.833,1.058,1.232,1.579
					c0.423,0.561,0.845,1.104,1.249,1.677c0.144,0.214,0.317,0.428,0.469,0.647l24.57-42.566c-0.075-0.069-0.141-0.15-0.22-0.225
					c-0.069-0.07-0.162-0.145-0.222-0.214c-7.349-7.304-15.733-13.792-25.129-19.216c-9.393-5.413-19.205-9.431-29.196-12.149V62.27
					z"/>
			</defs>
			<clipPath id="SVGID_20_">
				<use xlink:href="#SVGID_197_"  overflow="visible"/>
			</clipPath>
			<polygon clip-path="url(#SVGID_20_)" fill="#80C41C" points="198.797,113.717 127.209,61.998 181.438,-13.078 253.027,38.636 			
				"/>
		</g>
		<g>
			<defs>
				<path id="SVGID_199_" d="M99.331,13.042c-0.093,0.041-0.202,0.058-0.313,0.093c-9.992,2.718-19.811,6.737-29.191,12.149
					c-9.39,5.424-17.775,11.912-25.13,19.216l42.56,24.57c-0.208,0.133-0.405,0.289-0.585,0.446c2.002-1.463,4.124-2.84,6.327-4.112
					c2.058-1.191,4.151-2.273,6.285-3.25c0.498-0.243,1.013-0.463,1.544-0.683c0.063-0.035,0.157-0.075,0.219-0.104
					c0.55-0.237,1.105-0.474,1.648-0.682c0.047-0.029,0.111-0.046,0.168-0.069c0.561-0.226,1.146-0.451,1.723-0.66
					c0.046-0.028,0.111-0.046,0.157-0.069c0.572-0.214,1.173-0.417,1.746-0.613c0.098-0.023,0.197-0.063,0.278-0.092
					c0.555-0.185,1.093-0.364,1.642-0.538c0.214-0.063,0.446-0.133,0.66-0.185c0.416-0.133,0.844-0.266,1.266-0.382
					c0.399-0.115,0.81-0.214,1.203-0.335c0.249-0.052,0.515-0.116,0.752-0.196c0.561-0.133,1.145-0.272,1.722-0.411
					c0.07-0.012,0.146-0.041,0.208-0.046c2.591-0.59,5.228-1.041,7.894-1.342c0.046-0.012,0.069-0.012,0.098-0.023
					c0.59-0.069,1.192-0.115,1.81-0.174c0.063-0.017,0.116-0.017,0.173-0.023L99.631,12.979
					C99.533,12.99,99.436,13.031,99.331,13.042"/>
			</defs>
			<clipPath id="SVGID_22_">
				<use xlink:href="#SVGID_199_"  overflow="visible"/>
			</clipPath>
			<polygon clip-path="url(#SVGID_22_)" fill="#FFFF00" points="150.75,50.953 70.788,106.836 18.161,31.523 98.116,-24.348 			"/>
		</g>
		<g>
			<defs>
				<path id="SVGID_201_" d="M130.979,8.896c-10.826,0-21.333,1.429-31.349,4.083l24.565,42.548
					c-0.057,0.006-0.11,0.006-0.173,0.023c2.29-0.214,4.609-0.317,6.957-0.317c2.306,0,4.568,0.092,6.813,0.294
					c4.774,0.422,9.425,1.29,13.901,2.562c0.144,0.047,0.293,0.093,0.45,0.139c0.479,0.139,0.989,0.283,1.487,0.445
					c0.312,0.093,0.618,0.197,0.925,0.29c0.335,0.116,0.664,0.208,0.978,0.33c0.404,0.133,0.832,0.277,1.226,0.439
					c0.229,0.075,0.45,0.156,0.688,0.237c0.444,0.156,0.866,0.341,1.324,0.509c0.173,0.069,0.374,0.15,0.561,0.22
					c0.445,0.185,0.884,0.37,1.329,0.566c0.179,0.07,0.365,0.145,0.55,0.226c0.428,0.179,0.861,0.382,1.295,0.584
					c0.151,0.064,0.317,0.133,0.458,0.197V13.135c-0.122-0.035-0.249-0.063-0.377-0.104c-0.064-0.023-0.144-0.041-0.237-0.052
					C152.353,10.325,141.833,8.896,130.979,8.896z"/>
			</defs>
			<clipPath id="SVGID_24_">
				<use xlink:href="#SVGID_201_"  overflow="visible"/>
			</clipPath>
			<rect x="99.631" y="8.896" clip-path="url(#SVGID_24_)" fill="#CCE70B" width="63.333" height="53.374"/>
		</g>
	</g>
</g>
<g id="TXT">
</g>
<g id="Guias">
</g>
</svg>
