<?xml version="1.0" encoding="utf-8"?>
<!-- Generator: Adobe Illustrator 16.0.0, SVG Export Plug-In . SVG Version: 6.00 Build 0)  -->
<!DOCTYPE svg PUBLIC "-//W3C//DTD SVG 1.1//EN" "http://www.w3.org/Graphics/SVG/1.1/DTD/svg11.dtd">
<svg version="1.1" xmlns="http://www.w3.org/2000/svg" xmlns:xlink="http://www.w3.org/1999/xlink" x="0px" y="0px"
	 width="408.489px" height="338.747px" viewBox="0 0 408.489 338.747" enable-background="new 0 0 408.489 338.747"
	 xml:space="preserve">
<g id="Soporte">
</g>
<g id="Imagenes">
</g>
<g id="Vectores">
</g>
<g id="Botones">
</g>
<g id="Iconos_1_">
</g>
<g id="Logos">
	<path d="M30.084,238.441c7.35,0,13.179,2.435,17.493,7.304c3.909,4.4,5.857,9.75,5.857,16.053c0,6.297-1.931,11.628-5.812,16
		c-4.314,4.863-10.159,7.298-17.539,7.298c-7.327,0-13.121-2.436-17.4-7.298c-3.886-4.412-5.817-9.784-5.817-16.15
		c0-6.292,1.92-11.6,5.776-15.942C16.917,240.859,22.735,238.441,30.084,238.441 M29.941,276.636c4.747,0,8.5-1.556,11.257-4.649
		c2.522-2.828,3.771-6.286,3.771-10.374c0-4.129-1.278-7.639-3.817-10.525c-2.851-3.215-6.69-4.834-11.49-4.834
		c-4.718,0-8.448,1.556-11.212,4.65c-2.48,2.798-3.718,6.239-3.718,10.327c0,4.135,1.272,7.646,3.812,10.571
		C21.365,275.028,25.164,276.636,29.941,276.636"/>
	<path d="M59.015,237.701h13.768c3.979,0,7.384,1.376,10.235,4.141c2.863,2.752,4.286,6.118,4.286,10.091
		c0,4.065-1.377,7.431-4.141,10.096c-1.643,1.579-3.649,2.805-6.003,3.672c-0.717,0.249-2.122,0.463-4.209,0.63
		c-2.093,0.167-3.792,0.254-5.095,0.254h-0.554l0.092,17.811h-8.379V237.701z M67.395,258.114h5.87c1.572,0,2.913-0.579,4.007-1.747
		c1.109-1.174,1.654-2.579,1.654-4.227s-0.544-3.076-1.654-4.279c-1.094-1.191-2.464-1.787-4.105-1.787h-5.771V258.114z"/>
	<rect x="92.514" y="238.349" width="8.749" height="46.707"/>
	<path d="M107.021,284.592v-31.856c0-4.065,1.499-7.523,4.494-10.356c2.989-2.846,6.551-4.262,10.681-4.262
		c4.244,0,7.927,1.394,11.05,4.187c3.111,2.799,4.678,6.245,4.678,10.339v31.949h-8.478v-31.492c0-1.926-0.693-3.557-2.093-4.886
		c-1.393-1.33-3.053-2.007-4.973-2.007c-2.019,0-3.718,0.74-5.094,2.209c-1.382,1.48-2.07,3.261-2.07,5.337v30.838H107.021z"/>
	<path d="M166.022,238.441c7.35,0,13.179,2.435,17.486,7.304c3.91,4.4,5.864,9.75,5.864,16.053c0,6.297-1.943,11.628-5.812,16
		c-4.313,4.863-10.171,7.298-17.539,7.298c-7.326,0-13.12-2.436-17.4-7.298c-3.886-4.412-5.822-9.784-5.822-16.15
		c0-6.292,1.924-11.6,5.776-15.942C152.855,240.859,158.667,238.441,166.022,238.441 M165.877,276.636
		c4.742,0,8.495-1.556,11.254-4.649c2.52-2.828,3.775-6.286,3.775-10.374c0-4.129-1.278-7.639-3.815-10.525
		c-2.857-3.215-6.691-4.834-11.49-4.834c-4.719,0-8.449,1.556-11.219,4.65c-2.481,2.798-3.718,6.239-3.718,10.327
		c0,4.135,1.266,7.646,3.81,10.571C157.302,275.028,161.101,276.636,165.877,276.636"/>
	<path d="M222.674,248.631c-0.271-0.498-0.913-0.983-1.919-1.446c-1.002-0.463-2.273-0.7-3.823-0.7
		c-1.445,0-3.127,0.329-5.043,0.977c-2.439,0.85-4.406,1.972-5.886,3.417c-1.082,1.012-1.892,1.955-2.429,2.811
		c-0.544,0.855-1.029,1.989-1.463,3.423c-0.249,0.804-0.416,1.544-0.509,2.209c-0.092,0.67-0.139,1.451-0.139,2.354
		c0,0.995,0.082,1.885,0.261,2.689c0.167,0.792,0.457,1.717,0.855,2.816c0.277,0.682,0.572,1.313,0.862,1.879
		c0.301,0.573,0.654,1.156,1.098,1.752c0.336,0.463,0.713,0.902,1.117,1.301c0.617,0.619,1.357,1.215,2.232,1.776
		c0.705,0.462,1.369,0.833,1.976,1.11c0.602,0.289,1.228,0.498,1.864,0.637c0.623,0.133,1.127,0.225,1.502,0.254
		c0.376,0.041,0.741,0.052,1.076,0.052v-7.598h-4.188v-7.713h12.555v24.049h-8.923c-1.676-0.243-3.152-0.577-4.429-1
		c-1.261-0.417-2.707-1.041-4.325-1.886c-1.296-0.676-2.302-1.266-3.024-1.763c-0.833-0.596-1.718-1.371-2.643-2.331
		c-0.683-0.688-1.273-1.347-1.753-1.984c-0.479-0.63-0.948-1.335-1.411-2.116c-1.215-2.012-2.065-3.973-2.544-5.869
		c-0.474-1.885-0.723-4.094-0.723-6.609c0-3.417,0.59-6.378,1.77-8.865c1.168-2.504,3.065-5.02,5.656-7.529
		c2.254-2.174,4.759-3.852,7.488-5.031c2.74-1.179,5.309-1.764,7.727-1.764c1.942,0,3.723,0.277,5.33,0.838
		c0.526,0.186,1.133,0.463,1.805,0.833V248.631z"/>
	<path d="M227.983,237.794h14.785c4.073,0,7.495,1.636,10.287,4.927c2.452,2.88,3.672,5.956,3.672,9.212
		c0,3.412-0.878,6.355-2.642,8.818c-1.771,2.469-4.261,4.181-7.499,5.135l11.454,18.609h-10.188l-11.409-17.58v17.58h-8.46V237.794z
		 M242.682,246.167c-1.613-0.226-3.082-0.33-4.418-0.33c-0.965,0-1.566,0.046-1.821,0.133v12.201
		c0.659,0.116,1.336,0.185,2.052,0.185c0.314,0,0.805-0.017,1.487-0.04c0.688-0.041,1.236-0.052,1.678-0.052
		c1.241,0,2.271-0.203,3.093-0.584c0.82-0.394,1.486-0.885,1.978-1.492c0.498-0.607,0.815-1.249,0.978-1.931
		c0.028-0.186,0.12-0.902,0.277-2.14c0.151-1.214-0.307-2.44-1.398-3.724C245.51,247.121,244.203,246.381,242.682,246.167"/>
	<path d="M291.771,284.679h-8.01v-15.023h-13.397v15.023h-8.282v-31.538v-0.7c0-3.602,1.458-6.84,4.354-9.737
		c2.897-2.903,6.298-4.355,10.208-4.355c4,0,7.518,1.417,10.559,4.233c3.035,2.816,4.568,6.072,4.568,9.767V284.679z
		 M283.761,252.349c0-1.793-0.7-3.302-2.109-4.516c-1.4-1.209-3.054-1.811-4.962-1.811c-1.718,0-3.191,0.619-4.452,1.868
		c-1.243,1.244-1.874,2.724-1.874,4.459v9.298h13.397V252.349z M289.817,222.256l-10.977,11.167l-5.781-0.011l11.171-11.161
		L289.817,222.256z"/>
	<path d="M322.379,246.3h-10.804c-0.838,0-1.415,0.052-1.74,0.144c-0.323,0.093-0.862,0.417-1.607,0.978
		c-0.932,0.71-1.393,1.642-1.393,2.792v7.251h15.357v8.096h-15.357v19.117h-8.565v-32.718c0-2.261,0.208-4.048,0.606-5.355
		c0.4-1.324,1.269-2.677,2.586-4.053c1.319-1.376,2.706-2.446,4.164-3.186c1.734-0.896,3.562-1.342,5.487-1.342h11.266V246.3z"/>
	<rect x="326.981" y="238.349" width="8.737" height="46.707"/>
	<path d="M365.174,284.679c-0.375,0.063-0.781,0.093-1.209,0.093h-1.027c-6.292,0-11.779-2.284-16.44-6.853
		c-4.672-4.574-6.997-10.039-6.997-16.376c0-6.39,2.341-11.883,7.021-16.51c4.684-4.608,10.165-6.915,16.475-6.915h1.202h0.792v8.83
		c-0.618-0.086-1.243-0.133-1.862-0.133c-3.973,0-7.441,1.446-10.414,4.331c-2.983,2.875-4.471,6.321-4.471,10.328
		c0,3.984,1.487,7.465,4.471,10.42c2.973,2.943,6.453,4.417,10.466,4.417c0.678,0,1.342-0.069,1.995-0.185V284.679z"/>
	<path d="M399.223,284.679h-7.991v-15.023h-13.411v15.023h-8.273v-31.538v-0.694c0-3.608,1.444-6.847,4.342-9.744
		c2.902-2.903,6.303-4.355,10.219-4.355c4,0,7.512,1.405,10.559,4.233c3.036,2.827,4.557,6.072,4.557,9.767V284.679z
		 M391.232,252.349c0-1.793-0.718-3.302-2.111-4.516c-1.417-1.209-3.064-1.811-4.978-1.811c-1.713,0-3.192,0.63-4.441,1.868
		c-1.255,1.244-1.881,2.724-1.881,4.459v9.298h13.411V252.349z"/>
	<rect x="8.296" y="296.342" width="2.92" height="31.66"/>
	<polygon points="38.342,329.235 27.072,303.82 24.643,328.002 21.642,328.002 26.002,295 38.301,323.18 51.058,295 55.17,328.002 
		52.168,328.002 49.786,303.82 	"/>
	<path d="M65.717,328.002v-31.66h5.852c2.302,0,4.007,0.122,5.094,0.371c1.082,0.242,2.035,0.652,2.839,1.209
		c1.006,0.728,1.782,1.705,2.342,2.96c0.561,1.261,0.839,2.648,0.839,4.181c0,3.008-0.862,5.222-2.567,6.621
		c-1.706,1.404-4.413,2.111-8.114,2.111h-3.365v14.207H65.717z M68.637,311.274h1.983c3.539,0,5.916-0.451,7.142-1.342
		c1.214-0.885,1.832-2.436,1.832-4.661c0-0.931-0.149-1.792-0.415-2.573c-0.29-0.792-0.707-1.498-1.261-2.116
		c-0.561-0.636-1.341-1.081-2.313-1.336c-0.989-0.266-2.648-0.388-4.985-0.388h-1.983V311.274z"/>
	<path d="M112.135,328.002h-3.557l-11.265-15.092h-1.757v15.092h-2.909v-31.66h5.887c3.481,0,6.095,0.718,7.823,2.141
		c1.735,1.428,2.597,3.59,2.597,6.487c0,2.464-0.74,4.407-2.22,5.812c-1.487,1.417-3.534,2.129-6.13,2.129L112.135,328.002z
		 M95.556,298.858v11.699h2.938c2.724,0,4.62-0.429,5.69-1.296c1.082-0.851,1.618-2.313,1.618-4.372c0-2.18-0.555-3.729-1.671-4.654
		c-1.11-0.92-2.995-1.377-5.638-1.377H95.556z"/>
	<polygon points="120.825,328.002 120.825,296.342 136.716,296.342 136.716,299.049 123.746,299.049 123.746,308.955 
		136.716,308.955 136.716,311.655 123.746,311.655 123.746,325.296 136.716,325.296 136.716,328.002 	"/>
	<path d="M145.892,322.676l2.499-1.307c0.474,1.55,1.273,2.764,2.422,3.626c1.157,0.851,2.522,1.284,4.13,1.284
		c2.041,0,3.62-0.596,4.759-1.775c1.14-1.191,1.706-2.816,1.706-4.91c0-1.526-0.376-2.805-1.151-3.811
		c-0.769-1.006-2.412-2.168-4.938-3.504c-3.227-1.683-5.373-3.164-6.448-4.447c-1.063-1.283-1.596-2.833-1.596-4.631
		c0-2.25,0.77-4.078,2.32-5.494c1.532-1.416,3.539-2.123,5.986-2.123c1.618,0,3.012,0.336,4.198,1.013
		c1.196,0.659,2.163,1.665,2.908,3.007l-2.26,1.348c-0.463-0.908-1.127-1.602-1.978-2.076c-0.862-0.48-1.867-0.717-3.035-0.717
		c-1.585,0-2.834,0.463-3.777,1.376c-0.936,0.914-1.398,2.157-1.398,3.712c0,2.215,1.856,4.285,5.568,6.199
		c0.671,0.348,1.185,0.619,1.532,0.805c2.736,1.486,4.558,2.885,5.482,4.203c0.92,1.318,1.377,3.036,1.377,5.141
		c0,2.834-0.833,5.096-2.521,6.748c-1.683,1.666-3.967,2.51-6.858,2.51c-2.1,0-3.909-0.525-5.401-1.549
		C147.911,326.268,146.749,324.729,145.892,322.676"/>
	<path d="M208.028,312.239c0,2.232-0.429,4.355-1.296,6.361c-0.861,2.018-2.105,3.811-3.724,5.383
		c-1.654,1.58-3.522,2.8-5.593,3.627c-2.076,0.826-4.272,1.242-6.585,1.242c-2.308,0-4.499-0.416-6.569-1.242
		c-2.065-0.827-3.915-2.047-5.558-3.627c-1.631-1.596-2.886-3.405-3.736-5.4c-0.855-1.988-1.283-4.111-1.283-6.344
		c0-2.266,0.428-4.395,1.283-6.406c0.85-2.02,2.105-3.822,3.736-5.425c1.607-1.567,3.441-2.759,5.5-3.573
		c2.069-0.799,4.272-1.197,6.627-1.197c2.371,0,4.59,0.398,6.667,1.215c2.064,0.814,3.903,2.006,5.511,3.556
		c1.637,1.603,2.879,3.405,3.741,5.425C207.599,307.844,208.028,309.973,208.028,312.239 M190.83,326.28
		c1.908,0,3.7-0.354,5.395-1.041c1.699-0.694,3.231-1.706,4.591-3.036c1.331-1.336,2.348-2.856,3.059-4.569
		c0.711-1.711,1.064-3.503,1.064-5.395c0-1.902-0.353-3.7-1.053-5.395c-0.699-1.695-1.729-3.221-3.07-4.568
		c-1.331-1.324-2.851-2.342-4.557-3.03c-1.7-0.688-3.516-1.047-5.429-1.047c-1.897,0-3.69,0.358-5.373,1.047
		c-1.677,0.688-3.198,1.706-4.557,3.03c-1.347,1.359-2.376,2.892-3.076,4.568c-0.7,1.683-1.047,3.475-1.047,5.395
		c0,1.902,0.347,3.701,1.047,5.395c0.7,1.695,1.729,3.217,3.076,4.569c1.341,1.342,2.851,2.354,4.516,3.042
		C187.082,325.926,188.887,326.28,190.83,326.28"/>
	<path d="M238.449,328.002h-3.556l-11.265-15.092h-1.751v15.092h-2.921v-31.66h5.897c3.481,0,6.083,0.718,7.819,2.141
		c1.729,1.428,2.597,3.59,2.597,6.487c0,2.464-0.748,4.407-2.233,5.812c-1.479,1.417-3.522,2.129-6.118,2.129L238.449,328.002z
		 M221.877,298.858v11.699h2.938c2.711,0,4.607-0.429,5.683-1.296c1.076-0.851,1.615-2.313,1.615-4.372
		c0-2.18-0.556-3.729-1.672-4.654c-1.111-0.92-2.989-1.377-5.626-1.377H221.877z"/>
	<polygon points="247.153,328.002 247.153,296.342 263.038,296.342 263.038,299.049 250.067,299.049 250.067,308.955 
		263.038,308.955 263.038,311.655 250.067,311.655 250.067,325.296 263.038,325.296 263.038,328.002 	"/>
	<path d="M272.219,322.676l2.493-1.307c0.463,1.55,1.276,2.764,2.423,3.626c1.151,0.851,2.525,1.284,4.135,1.284
		c2.029,0,3.612-0.596,4.748-1.775c1.144-1.191,1.716-2.816,1.716-4.91c0-1.526-0.388-2.805-1.15-3.811
		c-0.774-1.006-2.422-2.168-4.944-3.504c-3.226-1.683-5.377-3.164-6.441-4.447c-1.07-1.283-1.596-2.833-1.596-4.631
		c0-2.25,0.769-4.078,2.308-5.494c1.537-1.416,3.539-2.123,5.995-2.123c1.604,0,3.002,0.336,4.194,1.013
		c1.19,0.659,2.162,1.665,2.902,3.007l-2.255,1.348c-0.469-0.908-1.129-1.602-1.983-2.076c-0.856-0.48-1.87-0.717-3.037-0.717
		c-1.572,0-2.833,0.463-3.765,1.376c-0.942,0.914-1.411,2.157-1.411,3.712c0,2.215,1.863,4.285,5.576,6.199
		c0.664,0.348,1.179,0.619,1.526,0.805c2.729,1.486,4.563,2.885,5.481,4.203s1.376,3.036,1.376,5.141
		c0,2.834-0.84,5.096-2.509,6.748c-1.69,1.666-3.973,2.51-6.87,2.51c-2.1,0-3.904-0.525-5.402-1.549
		C274.239,326.268,273.059,324.729,272.219,322.676"/>
	<path d="M316.474,322.676l2.499-1.307c0.469,1.55,1.276,2.764,2.423,3.626c1.148,0.851,2.525,1.284,4.135,1.284
		c2.035,0,3.612-0.596,4.759-1.775c1.139-1.191,1.704-2.816,1.704-4.91c0-1.526-0.382-2.805-1.149-3.811
		c-0.77-1.006-2.411-2.168-4.945-3.504c-3.227-1.683-5.377-3.164-6.441-4.447s-1.602-2.833-1.602-4.631
		c0-2.25,0.775-4.078,2.319-5.494c1.537-1.416,3.538-2.123,5.984-2.123c1.607,0,3.013,0.336,4.203,1.013
		c1.198,0.659,2.164,1.665,2.904,3.007l-2.256,1.348c-0.475-0.908-1.134-1.602-1.989-2.076c-0.85-0.48-1.862-0.717-3.036-0.717
		c-1.572,0-2.84,0.463-3.764,1.376c-0.938,0.914-1.406,2.157-1.406,3.712c0,2.215,1.856,4.285,5.569,6.199
		c0.671,0.348,1.186,0.619,1.533,0.805c2.729,1.486,4.561,2.885,5.481,4.203c0.919,1.318,1.377,3.036,1.377,5.141
		c0,2.834-0.845,5.096-2.518,6.748c-1.683,1.666-3.965,2.51-6.856,2.51c-2.104,0-3.91-0.525-5.408-1.549
		C318.499,326.268,317.331,324.729,316.474,322.676"/>
	<path d="M345.232,326.186c0-0.623,0.206-1.139,0.647-1.561c0.428-0.434,0.959-0.643,1.583-0.643c0.631,0,1.162,0.209,1.591,0.643
		c0.428,0.422,0.647,0.938,0.647,1.561c0,0.619-0.22,1.14-0.647,1.574c-0.429,0.422-0.96,0.635-1.591,0.635
		c-0.624,0-1.155-0.213-1.583-0.635C345.438,327.326,345.232,326.805,345.232,326.186"/>
	<path d="M358.022,328.002l14.092-32.908l13.497,32.908h-3.175l-4.1-10.715h-13.108l-4.246,10.715H358.022z M366.217,314.818h11.176
		l-5.475-13.791L366.217,314.818z"/>
	<path d="M393.937,326.186c0-0.623,0.222-1.139,0.647-1.561c0.428-0.434,0.961-0.643,1.591-0.643c0.626,0,1.151,0.209,1.591,0.643
		c0.428,0.422,0.642,0.938,0.642,1.561c0,0.619-0.214,1.14-0.642,1.574c-0.439,0.422-0.965,0.635-1.591,0.635
		c-0.63,0-1.163-0.213-1.591-0.635C394.159,327.326,393.937,326.805,393.937,326.186"/>
	<g>
		<defs>
			<path id="SVGID_203_" d="M129.134,86.255c0,42.282,34.291,76.562,76.568,76.562c42.306,0,76.573-34.279,76.573-76.562
				c0-42.294-34.268-76.573-76.573-76.573C163.425,9.682,129.134,43.961,129.134,86.255"/>
		</defs>
		<clipPath id="SVGID_2_">
			<use xlink:href="#SVGID_203_"  overflow="visible"/>
		</clipPath>
		<rect x="89.651" y="-45.264" clip-path="url(#SVGID_2_)" fill="#B4B0AB" width="218.542" height="212.43"/>
	</g>
	<g>
		<defs>
			<path id="SVGID_205_" d="M182.687,67.595c0,0-2.556,49.852-14.306,65.014c-3.469,4.47-7.686,8.454-12.281,11.958
				c13.368,11.38,30.687,18.25,49.603,18.25c42.306,0,76.573-34.279,76.573-76.562c0-10.097-1.954-19.73-5.504-28.561
				C242.527,68.416,182.687,67.595,182.687,67.595"/>
		</defs>
		<clipPath id="SVGID_4_">
			<use xlink:href="#SVGID_205_"  overflow="visible"/>
		</clipPath>
		
			<linearGradient id="SVGID_6_" gradientUnits="userSpaceOnUse" x1="1748.0459" y1="111.3315" x2="1749.7037" y2="111.3315" gradientTransform="matrix(59.9371 74.0161 74.0161 -59.9371 -112829.3906 -122644.0859)">
			<stop  offset="0" style="stop-color:#FFFFFF"/>
			<stop  offset="0.0512" style="stop-color:#E0DFE0"/>
			<stop  offset="0.163" style="stop-color:#908D90"/>
			<stop  offset="0.2523" style="stop-color:#4D474D"/>
			<stop  offset="0.2982" style="stop-color:#635E62"/>
			<stop  offset="0.3865" style="stop-color:#878384"/>
			<stop  offset="0.4789" style="stop-color:#A5A2A1"/>
			<stop  offset="0.5752" style="stop-color:#BCBAB7"/>
			<stop  offset="0.6769" style="stop-color:#CCCBC7"/>
			<stop  offset="0.7877" style="stop-color:#D6D5D0"/>
			<stop  offset="0.9247" style="stop-color:#D9D8D3"/>
			<stop  offset="1" style="stop-color:#D9D8D3"/>
		</linearGradient>
		<polygon clip-path="url(#SVGID_4_)" fill="url(#SVGID_6_)" points="232.303,-4.017 333.688,121.188 206.079,224.534 104.68,99.33 
					"/>
	</g>
	<g>
		<defs>
			<path id="SVGID_208_" d="M183,68.248c0,0-2.55,50.106-14.364,65.338c-0.457,0.607-0.937,1.197-1.428,1.781
				c-0.087,0.11-0.173,0.202-0.26,0.3c-0.499,0.578-1.007,1.162-1.539,1.717c-0.029,0.063-0.081,0.104-0.144,0.156
				c-1.105,1.203-2.284,2.371-3.509,3.493v0.012L278.113,61.28c-0.301-0.885-0.62-1.77-0.961-2.631
				C232.389,74.893,183,68.248,183,68.248"/>
		</defs>
		<clipPath id="SVGID_8_">
			<use xlink:href="#SVGID_208_"  overflow="visible"/>
		</clipPath>
		
			<linearGradient id="SVGID_10_" gradientUnits="userSpaceOnUse" x1="1728.8379" y1="84.6001" x2="1730.4957" y2="84.6001" gradientTransform="matrix(20.9224 25.837 25.837 -20.9224 -38167.7188 -42835.6445)">
			<stop  offset="0" style="stop-color:#EDEFEC"/>
			<stop  offset="0.1328" style="stop-color:#D6D7D3"/>
			<stop  offset="0.2286" style="stop-color:#D1D1CD"/>
			<stop  offset="0.3433" style="stop-color:#C4C3C1"/>
			<stop  offset="0.5573" style="stop-color:#A3A0A0"/>
			<stop  offset="0.738" style="stop-color:#827D80"/>
			<stop  offset="0.7974" style="stop-color:#898487"/>
			<stop  offset="0.8852" style="stop-color:#9C9899"/>
			<stop  offset="0.9902" style="stop-color:#BBB9B6"/>
			<stop  offset="1" style="stop-color:#BEBCB9"/>
		</linearGradient>
		<polygon clip-path="url(#SVGID_8_)" fill="url(#SVGID_10_)" points="232.032,1.737 318.406,108.409 207.835,197.946 
			121.462,91.281 		"/>
	</g>
	<g>
		<defs>
			<path id="SVGID_211_" d="M129.134,86.255c0,23.951,11.01,45.33,28.231,59.37c4.256-3.244,8.154-6.945,11.397-11.138
				C180.577,119.257,183,68.248,183,68.248s50.235,6.378,94.159-9.582c-11.074-28.653-38.884-48.984-71.456-48.984
				C163.425,9.682,129.134,43.961,129.134,86.255"/>
		</defs>
		<clipPath id="SVGID_12_">
			<use xlink:href="#SVGID_211_"  overflow="visible"/>
		</clipPath>
		
			<linearGradient id="SVGID_14_" gradientUnits="userSpaceOnUse" x1="1749.4863" y1="114.1694" x2="1751.1442" y2="114.1694" gradientTransform="matrix(74.7114 91.2317 91.2317 -74.7114 -141021.7031 -151126.0781)">
			<stop  offset="0" style="stop-color:#F8F7F6"/>
			<stop  offset="0.4672" style="stop-color:#F8F7F6"/>
			<stop  offset="0.6586" style="stop-color:#F6F6F4"/>
			<stop  offset="0.6873" style="stop-color:#F2F1EF"/>
			<stop  offset="0.8298" style="stop-color:#E0DFDA"/>
			<stop  offset="0.9247" style="stop-color:#D9D8D3"/>
			<stop  offset="1" style="stop-color:#D9D8D3"/>
		</linearGradient>
		<polygon clip-path="url(#SVGID_12_)" fill="url(#SVGID_14_)" points="217.743,-62.872 343.795,91.055 188.562,218.186 
			62.501,64.264 		"/>
	</g>
</g>
<g id="TXT">
</g>
<g id="Guias">
</g>
</svg>
