<?xml version="1.0" encoding="utf-8"?>
<!-- Generator: Adobe Illustrator 16.0.0, SVG Export Plug-In . SVG Version: 6.00 Build 0)  -->
<!DOCTYPE svg PUBLIC "-//W3C//DTD SVG 1.1//EN" "http://www.w3.org/Graphics/SVG/1.1/DTD/svg11.dtd">
<svg version="1.1" xmlns="http://www.w3.org/2000/svg" xmlns:xlink="http://www.w3.org/1999/xlink" x="0px" y="0px"
	 width="177.702px" height="32.688px" viewBox="0 0 177.702 32.688" enable-background="new 0 0 177.702 32.688"
	 xml:space="preserve">
<g id="Soporte">
</g>
<g id="Imagenes">
</g>
<g id="Vectores">
</g>
<g id="Botones">
</g>
<g id="Iconos_1_">
	<path fill="#D3D3D3" d="M10.084,9.039c0-1.543,1.304-1.314,1.304-1.314h4.101V3.126h-6.15c-4.656,0-4.776,5.157-4.776,5.157v3.514
		v0.013L1.916,11.83v4.204h2.646V28.94h5.522V16.034h4.688l0.717-4.302l-5.404,0.039v-0.039
		C10.084,11.731,10.084,10.583,10.084,9.039z"/>
	<path fill="#D3D3D3" d="M69.986,10.042c0,0,1.63-1.33,1.761-2.426c0,0-1.112,0.809-2.769,1.067c0,0-1.525-1.904-4.371-1.225
		c-2.844,0.677-3.438,3.888-3.102,5.167c0,0-4.94,0.076-8.976-4.542c0,0-1.964,3.315,1.423,5.874c0,0-1.626-0.105-1.988-0.525
		c0,0-0.157,3.47,3.541,4.333c0,0-0.881,0.312-2.018,0.183c0,0,0.955,2.871,4.085,2.95c0,0-2.844,2.373-6.517,1.85
		c0,0,3.869,2.878,9.153,1.74c0.251-0.053,0.508-0.117,0.764-0.19c3.352-1.027,6.245-3.219,7.852-6.394
		c0.104-0.208,0.209-0.42,0.308-0.644c0.696-1.547,1.195-3.462,1.088-5.68c0,0,1.654-1.175,2.172-2.218
		C72.392,9.362,71.332,9.859,69.986,10.042z"/>
	<g>
		<circle fill="#D3D3D3" cx="120.197" cy="10.536" r="1.278"/>
		<path fill="#D3D3D3" d="M114.459,10.904c-2.809,0-5.086,2.279-5.086,5.085c0,2.808,2.277,5.086,5.086,5.086
			c2.807,0,5.084-2.278,5.084-5.086C119.543,13.183,117.266,10.904,114.459,10.904z M114.459,19.455
			c-1.914,0-3.469-1.55-3.469-3.465c0-1.914,1.555-3.465,3.469-3.465c1.912,0,3.465,1.552,3.465,3.465
			C117.924,17.905,116.372,19.455,114.459,19.455z"/>
		<path fill="#D3D3D3" d="M120.727,6.16h-12.186c-2.01,0-3.639,1.628-3.639,3.637v12.471c0,2.009,1.629,3.637,3.639,3.637h12.186
			c2.01,0,3.637-1.628,3.637-3.637V9.797C124.364,7.789,122.737,6.16,120.727,6.16z M122.907,21.334
			c0,1.708-1.383,3.092-3.092,3.092h-10.363c-1.707,0-3.092-1.384-3.092-3.092V10.731c0-1.708,1.385-3.092,3.092-3.092h10.363
			c1.709,0,3.092,1.384,3.092,3.092V21.334z"/>
	</g>
	<polygon fill="#D3D3D3" points="158.819,5.372 176.567,15.637 158.819,25.901 	"/>
</g>
<g id="Logos">
</g>
<g id="TXT">
</g>
<g id="Guias">
</g>
</svg>
